<?xml version="1.0" encoding="UTF-8"?>
<svg xmlns="http://www.w3.org/2000/svg" width="155" height="34" viewBox="0 0 155 34" fill="none">
  <path d="M135.676 2.849C135.676 3.31359 135.814 3.76774 136.072 4.15403C136.33 4.54033 136.697 4.8414 137.126 5.01919C137.555 5.19698 138.027 5.2435 138.483 5.15286C138.939 5.06223 139.357 4.83851 139.686 4.50999C140.014 4.18148 140.238 3.76293 140.329 3.30727C140.419 2.85161 140.373 2.3793 140.195 1.95008C140.017 1.52085 139.716 1.15399 139.33 0.895878C138.943 0.637766 138.489 0.5 138.025 0.5C137.402 0.5 136.804 0.747483 136.364 1.18801C135.923 1.62853 135.676 2.22601 135.676 2.849Z" fill="#102236"></path>
  <path d="M138.025 10.741C138.976 10.7408 139.904 10.4447 140.68 9.89376C141.456 9.34283 142.041 8.56433 142.355 7.66602H133.694C134.008 8.56433 134.594 9.34283 135.369 9.89376C136.145 10.4447 137.073 10.7408 138.025 10.741Z" fill="#102236"></path>
  <path d="M142.355 7.66489H151.631C151.512 7.49089 151.389 7.31939 151.264 7.15039H142.502C142.462 7.32467 142.412 7.49647 142.352 7.66489" fill="#102236"></path>
  <path d="M133.546 7.15234H124.786C124.66 7.32134 124.538 7.49284 124.418 7.66684H133.696C133.636 7.49844 133.586 7.32664 133.546 7.15234Z" fill="#102236"></path>
  <path d="M138.024 14.6509C138.894 14.6509 139.743 14.3843 140.456 13.8868C141.169 13.3894 141.713 12.6852 142.014 11.8691H134.035C134.336 12.6852 134.879 13.3894 135.593 13.8868C136.306 14.3843 137.155 14.6509 138.024 14.6509Z" fill="#102236"></path>
  <path d="M142.014 11.8684H153.708C153.634 11.6419 153.555 11.4169 153.472 11.1934H142.203C142.16 11.4231 142.098 11.6488 142.018 11.8684" fill="#102236"></path>
  <path d="M133.851 11.1953H122.578C122.495 11.4173 122.416 11.6423 122.342 11.8703H134.036C133.955 11.6508 133.893 11.4251 133.851 11.1953Z" fill="#102236"></path>
  <path d="M138.025 18.1913C138.704 18.191 139.369 17.9986 139.943 17.6365C140.518 17.2743 140.978 16.7571 141.271 16.1445H134.779C135.072 16.7571 135.532 17.2743 136.106 17.6365C136.681 17.9986 137.346 18.191 138.025 18.1913Z" fill="#102236"></path>
  <path d="M134.479 15.2051H121.623C121.59 15.5148 121.564 15.8268 121.548 16.1411H134.778C134.635 15.8444 134.535 15.5294 134.479 15.2051Z" fill="#102236"></path>
  <path d="M141.572 15.2051C141.515 15.5294 141.414 15.8444 141.271 16.1411H154.501C154.485 15.8268 154.46 15.5148 154.427 15.2051H141.572Z" fill="#102236"></path>
  <path d="M138.024 21.7611C138.525 21.761 139.018 21.6331 139.456 21.3895C139.893 21.146 140.262 20.7948 140.526 20.3691H135.524C135.788 20.7947 136.156 21.1459 136.594 21.3895C137.031 21.633 137.524 21.761 138.024 21.7611Z" fill="#102236"></path>
  <path d="M140.524 20.3685H154.174C154.253 19.987 154.319 19.6005 154.372 19.209H140.944C140.888 19.6208 140.746 20.016 140.526 20.3685" fill="#102236"></path>
  <path d="M135.106 19.209H121.675C121.725 19.6 121.791 19.9865 121.873 20.3685H135.523C135.303 20.016 135.161 19.6208 135.106 19.209Z" fill="#102236"></path>
  <path d="M138.024 25.7893C138.432 25.7892 138.833 25.6847 139.188 25.4856C139.544 25.2866 139.842 24.9997 140.055 24.6523H135.993C136.206 24.9996 136.504 25.2865 136.86 25.4855C137.216 25.6846 137.617 25.7892 138.024 25.7893Z" fill="#102236"></path>
  <path d="M140.412 23.4036C140.412 23.8454 140.289 24.2784 140.056 24.6538H152.641C152.869 24.2203 153.077 23.7758 153.266 23.3203H140.408C140.408 23.3481 140.413 23.3751 140.413 23.4036" fill="#102236"></path>
  <path d="M135.637 23.4036C135.637 23.3758 135.637 23.3481 135.641 23.3203H122.782C122.971 23.7753 123.179 24.2198 123.407 24.6538H135.993C135.761 24.2784 135.637 23.8454 135.637 23.4036Z" fill="#102236"></path>
  <path d="M126.711 29.0047H149.339C149.94 28.4381 150.498 27.8275 151.009 27.1777H125.042C125.552 27.8274 126.11 28.4381 126.711 29.0047Z" fill="#102236"></path>
  <path d="M138.026 33.4971C141.136 33.5019 144.183 32.623 146.813 30.9629H129.235C131.865 32.6229 134.912 33.5018 138.022 33.4971" fill="#102236"></path>
  <path d="M18.817 22.4847C17.365 24.6597 14.7332 25.9122 11.5952 25.9122C5.98371 25.9122 2.3582 22.1818 2.3582 16.409C2.3582 10.5268 6.0497 6.87275 11.9927 6.87275C16.363 6.87275 19.2197 9.01475 20.0365 12.9035L20.0447 12.944H22.4335L22.426 12.8855C22.3124 11.2034 21.643 9.60677 20.5232 8.3465C18.5132 6.03425 15.5402 4.8125 11.926 4.8125C4.6817 4.8125 0.000204984 9.3515 0.000204984 16.376C-0.0608123 17.9229 0.189119 19.4664 0.735207 20.915C1.2813 22.3637 2.11244 23.688 3.17945 24.8098C4.3063 25.8719 5.63363 26.6987 7.0838 27.2417C8.53397 27.7848 10.0779 28.0332 11.6252 27.9725C14.6537 27.9725 17.0072 27.2705 18.8252 25.8253C20.63 24.2854 21.8962 22.2097 22.4395 19.9003H19.9892C19.762 20.827 19.3645 21.7034 18.817 22.4847Z" fill="#102236"></path>
  <path d="M33.4938 10.7937C27.463 10.7937 24.6963 14.8662 24.6963 19.3745C24.6963 23.3225 26.8713 27.9545 33.4938 27.9545C38.5938 27.9545 41.032 25.4112 42.0565 22.6955H39.7533C38.8885 24.89 37.1343 26.027 33.4945 26.027C29.3913 26.027 26.9973 23.291 26.9973 19.9332H42.6025C42.6025 12.596 37.66 10.793 33.4945 10.793M33.6498 12.7205C36.7248 12.7205 39.6498 14.213 40.3023 18.1955H26.9973C27.5223 14.2475 30.6963 12.7205 33.6498 12.7205Z" fill="#102236"></path>
  <path d="M47.4791 5.27734H45.2861V27.5081H47.4791V5.27734Z" fill="#102236"></path>
  <path d="M53.0182 5.27734H50.8252V27.5081H53.0182V5.27734Z" fill="#102236"></path>
  <path d="M71.9528 25.7453C71.1676 25.7453 70.9779 25.3448 70.9779 23.7068V17.0715C70.9779 14.6543 70.9081 14.199 70.4078 13.3313C69.4328 11.5478 67.4461 10.7168 64.1596 10.7168C60.8521 10.7168 58.8564 11.3865 57.4846 12.9563C56.6911 13.815 56.3499 14.6685 56.0784 16.467L56.0693 16.5263H58.3321L58.3366 16.4798C58.6006 13.8735 60.3241 12.711 63.9249 12.711C67.1244 12.711 68.8156 13.6913 68.8156 15.546C68.8156 16.8885 68.1121 17.3558 65.5426 17.721L62.1594 18.1853C59.6326 18.5093 58.6343 18.7673 57.4966 19.3853C56.8433 19.7582 56.304 20.3024 55.937 20.9591C55.57 21.6158 55.3891 22.3602 55.4139 23.112C55.3939 23.8022 55.5411 24.4869 55.8429 25.1079C56.1447 25.7288 56.5921 26.2676 57.1471 26.6783C58.5533 27.6053 60.2185 28.0593 61.9006 27.9743C64.9606 27.9743 66.8506 27.165 68.8224 24.996C68.9469 26.823 69.6474 27.675 71.0229 27.675C71.6931 27.6663 72.358 27.5537 72.9938 27.3413L73.0314 27.3308V25.5278L72.9661 25.5458C72.6393 25.6606 72.2974 25.727 71.9514 25.743M68.8149 21.4815C68.8149 22.6238 68.2996 23.4683 66.9774 24.4928C65.5614 25.5756 63.8141 26.1346 62.0326 26.0745C59.3229 26.0745 57.6391 24.9248 57.6391 23.0745C57.6263 22.651 57.7318 22.2322 57.9438 21.8652C58.1557 21.4982 58.4658 21.1976 58.8391 20.997C59.8951 20.5225 61.0209 20.2219 62.1728 20.1068L65.1923 19.6425C67.4641 19.2533 68.2328 19.0193 68.8141 18.5138L68.8149 21.4815Z" fill="#102236"></path>
  <path d="M82.6406 10.8848C81.5935 10.8886 80.5658 11.1678 79.6608 11.6944C78.7557 12.221 78.0051 12.9764 77.4844 13.8848V11.1848H75.3911V27.5086H77.6501V18.4673C77.6501 16.7738 77.7633 16.3066 78.4053 15.3436C78.8483 14.6333 79.4617 14.045 80.1898 13.632C80.918 13.2191 81.7377 12.9945 82.5746 12.9788C83.331 12.9995 84.084 13.0882 84.8246 13.2436L84.8846 13.2533V11.1946L84.8456 11.1848C84.129 10.9833 83.388 10.8823 82.6436 10.8848" fill="#102236"></path>
  <path d="M87.9506 5.1582C87.6772 5.1582 87.41 5.23927 87.1827 5.39115C86.9554 5.54304 86.7782 5.75892 86.6736 6.01149C86.569 6.26406 86.5416 6.54199 86.5949 6.81012C86.6483 7.07825 86.7799 7.32454 86.9732 7.51785C87.1665 7.71116 87.4128 7.84281 87.6809 7.89614C87.9491 7.94948 88.227 7.92211 88.4796 7.81749C88.7321 7.71287 88.948 7.5357 89.0999 7.30839C89.2518 7.08108 89.3328 6.81384 89.3328 6.54045C89.3325 6.17398 89.1867 5.82263 88.9276 5.56349C88.6684 5.30436 88.3171 5.1586 87.9506 5.1582Z" fill="#102236"></path>
  <path d="M89.0798 11.1816H86.8208V27.5069H89.0798V11.1816Z" fill="#102236"></path>
  <path d="M98.0243 25.7788C97.2376 25.7788 96.7681 25.5538 96.5454 25.0791C96.3841 24.7243 96.3841 24.5398 96.3841 22.2808V13.0761H100.775L99.9451 11.1816H96.3841V6.37109H94.1581V11.1816H91.3081V13.0761H94.1581V22.3138C94.1581 24.4753 94.2331 25.4008 94.4581 25.9798C94.8639 27.1311 95.9701 27.7393 97.6576 27.7393C98.7445 27.7272 99.8298 27.6496 100.907 27.5068L100.952 27.5008V25.6071L100.895 25.6131C99.3586 25.7706 98.2321 25.7788 98.0221 25.7788" fill="#102236"></path>
  <path d="M117.244 11.1827L110.875 25.2077L104.42 11.2097L104.406 11.1797H101.937L109.724 27.4547L109.038 28.9914C108.158 30.9024 107.191 31.6284 105.808 31.4169C105.288 31.3374 104.442 31.1102 103.622 30.8919C103.053 30.7419 102.515 30.5919 102.132 30.5132L102.069 30.4997V32.6274L102.108 32.6372C102.348 32.6957 102.644 32.7804 102.956 32.8697C103.88 33.1687 104.832 33.3725 105.797 33.4779C105.951 33.4869 106.101 33.4914 106.247 33.4914C107.024 33.5432 107.8 33.3741 108.486 33.0037C109.171 32.6333 109.738 32.0768 110.121 31.3982C110.585 30.6452 110.986 29.8553 111.321 29.0364L119.547 11.2554L119.58 11.1804L117.244 11.1827Z" fill="#102236"></path>
</svg>
