<?xml version="1.0" encoding="UTF-8"?>
<svg version="1.1" xmlns="http://www.w3.org/2000/svg" width="200" height="200">
<path d="M0 0 C66 0 132 0 200 0 C200 66 200 132 200 200 C134 200 68 200 0 200 C0 134 0 68 0 0 Z " fill="#01A0B5" transform="translate(0,0)"/>
<path d="M0 0 C1.04583252 0.00572021 2.09166504 0.01144043 3.16918945 0.01733398 C12.31954412 0.22633616 19.94620811 1.87213892 28.3125 5.5 C29.4365625 5.9846875 30.560625 6.469375 31.71875 6.96875 C48.55030013 15.14407435 59.9756579 29.51616143 67.3125 46.5 C73.8211246 65.97288322 73.18672823 87.55200394 64 106.0625 C60.93972662 111.6967745 57.59504478 116.73099983 53.3125 121.5 C52.22001953 122.73169922 52.22001953 122.73169922 51.10546875 123.98828125 C39.20431863 136.65848792 22.74706548 144.94349226 5.1953125 145.73828125 C-13.44803016 146.17660127 -31.02302449 142.0573048 -45.125 129.0625 C-47.01636712 127.24035538 -48.85173977 125.37966481 -50.6875 123.5 C-51.35394531 122.85417969 -52.02039063 122.20835937 -52.70703125 121.54296875 C-65.37855338 108.41378442 -71 88.92299453 -71 71.08984375 C-70.59659667 50.69963893 -61.7414804 32.24687262 -47.234375 18.109375 C-42.12878457 13.61523253 -36.718014 10.2020553 -30.6875 7.125 C-30.059646 6.80313721 -29.43179199 6.48127441 -28.78491211 6.1496582 C-19.49399972 1.65918911 -10.27562799 -0.06607852 0 0 Z " fill="#F8FDFD" transform="translate(99.6875,25.5)"/>
<path d="M0 0 C3.38105102 2.16820907 4.90361262 3.68668609 6.94921875 7.25 C7.90383776 11.62656102 7.78551657 15.37890565 5.9453125 19.49609375 C1.82106873 25.71183436 -4.41826746 29.14871221 -11.59765625 30.85546875 C-19.85553609 32.18356726 -26.08310515 31.18231552 -33.05078125 26.25 C-35.69804233 23.56948187 -36.86216559 20.88565145 -37.30078125 17.08203125 C-37.14789159 11.53022564 -35.10390005 7.96746816 -31.26171875 4.046875 C-22.03836362 -3.44913801 -10.72345535 -5.54462323 0 0 Z " fill="#06A0B5" transform="translate(132.05078125,120.75)"/>
<path d="M0 0 C5.87356754 2.70184107 8.90302061 7.52228075 12 13 C14.19598147 19.5879444 14.06153426 29.0049613 11.8125 35.625 C9.3022332 40.2992899 6.17198348 44.27600551 1 46 C-2.72623045 46.48603006 -4.62075241 46.18962379 -8 44.5 C-14.70650806 38.91124328 -18.37582069 33.02803303 -19.28515625 24.24609375 C-19.70065253 15.90420696 -17.85013516 9.80453486 -12.61328125 3.26953125 C-8.80624858 -0.4540596 -5.0110585 -1.04648611 0 0 Z " fill="#06A0B5" transform="translate(60,78)"/>
<path d="M0 0 C3.50298442 2.35626755 6.80574919 4.82012217 8 9 C8.42548252 14.3610798 8.50070952 17.68245826 5 22 C-0.52276127 27.39432496 -6.10219364 30.07200754 -13.875 30.4375 C-21.43190286 30.14729636 -27.7298372 27.73759642 -33.125 22.375 C-36.21735719 18.45655211 -36.88847759 15.26115209 -36.47265625 10.32421875 C-35.54004814 5.73825327 -33.74854731 3.28750456 -30 0.52734375 C-20.79542657 -4.90759352 -9.42972798 -4.88325199 0 0 Z " fill="#049FB5" transform="translate(128,47)"/>
<path d="M0 0 C9.04210231 -0.69258656 15.56263664 1.26931485 23.25 6 C29.23974391 11.61324572 32.35771004 19.54902486 32.625 27.625 C32.17534318 36.35670808 29.39889567 43.8854997 23 50 C16.95286771 54.41536644 11.42816737 55.82941578 4 56 C6 54 6 54 9.25 52.3125 C15.1268434 48.99453216 19.42941548 43.8781279 21.52734375 37.43359375 C23.02990836 29.6972487 23.33325403 21.49360538 19.1328125 14.60546875 C18.57207031 13.81076172 18.57207031 13.81076172 18 13 C17.38125 12.0925 16.7625 11.185 16.125 10.25 C11.48761879 5.33983166 6.24734669 3.15425748 0 1 C0 0.67 0 0.34 0 0 Z " fill="#0A9FB3" transform="translate(56,72)"/>
<path d="M0 0 C5.55973256 6.03628106 8.88259936 12.1426827 9.1875 20.375 C5.1875 15.375 5.1875 15.375 3.5625 12.875 C-1.64770236 7.39057646 -9.01143434 4.70267807 -16.4375 4.0625 C-23.3944537 4.19205221 -29.62738651 6.88994733 -34.6875 11.625 C-39.74409319 17.20633399 -42.19078495 22.91441942 -42.8125 30.375 C-45.35542289 27.83207711 -45.110119 26.83929802 -45.125 23.3125 C-44.89352942 13.96839811 -42.3970912 8.1197858 -35.93359375 1.32421875 C-25.11598688 -8.61682329 -12.00672986 -6.9372217 0 0 Z " fill="#179EB0" transform="translate(133.8125,108.625)"/>
<path d="M0 0 C0.27714844 0.55945312 0.55429688 1.11890625 0.83984375 1.6953125 C1.22269531 2.45585938 1.60554688 3.21640625 2 4 C2.39316406 4.78117187 2.78632812 5.56234375 3.19140625 6.3671875 C6.66323531 12.71737056 10.38400873 16.88185455 17 20 C24.76546865 22.03560829 33.08799791 22.26582668 40.18359375 18.265625 C40.78300781 17.84796875 41.38242188 17.4303125 42 17 C43.24523437 16.13375 43.24523437 16.13375 44.515625 15.25 C47.39302295 12.64405469 48.67474356 10.25403704 50.3125 6.75 C51.08013672 5.13351563 51.08013672 5.13351563 51.86328125 3.484375 C52.23839844 2.66453125 52.61351562 1.8446875 53 1 C53.33 1 53.66 1 54 1 C54.54566429 9.54874051 52.09868852 16.50779888 46.75 23.20703125 C40.99451958 29.10382927 34.92882279 31.15782584 26.8125 31.3125 C18.9100948 31.33800382 14.30571491 29.76757527 8.3125 24.75 C2.24732365 17.53735785 -1.56910898 10.67485272 -1 1 C-0.67 0.67 -0.34 0.34 0 0 Z " fill="#129FB1" transform="translate(87,62)"/>
<path d="M0 0 C0.66 0 1.32 0 2 0 C1.93039063 0.78503906 1.86078125 1.57007813 1.7890625 2.37890625 C1.32721085 9.64642548 1.32721085 9.64642548 4.375 16 C9.49088411 20.91172911 15.99112647 23.15837252 23 23.5 C29.81670152 23.18868607 35.57652821 20.81760384 41 16.75 C43.59288609 13.18478162 44.19523152 10.31648547 45 6 C45.33 6 45.66 6 46 6 C46.12375 6.969375 46.2475 7.93875 46.375 8.9375 C46.58125 9.948125 46.7875 10.95875 47 12 C47.66 12.33 48.32 12.66 49 13 C44.47588295 21.67122435 39.52157061 27.85460821 30 31 C20.9057712 31.97801064 12.48645674 31.03349538 5.1875 25.25 C1.90668463 22.19807872 -0.06324717 19.02844588 -2 15 C-2 14.34 -2 13.68 -2 13 C-1.34 13 -0.68 13 0 13 C0 8.71 0 4.42 0 0 Z " fill="#EEFCFC" transform="translate(91,53)"/>
<path d="M0 0 C4.20688647 2.78677597 8.25044071 6.18871196 10 11 C10.02656942 14.40088613 9.81469385 17.69222044 9 21 C8.01 21.495 8.01 21.495 7 22 C6.98582031 21.34773438 6.97164062 20.69546875 6.95703125 20.0234375 C6.64758371 13.90855355 6.64758371 13.90855355 3.9375 8.5625 C-1.7224712 3.62507832 -7.59025664 2.30121224 -15.0546875 2.51953125 C-21.68621398 3.60133199 -28.45289219 6.9067868 -33.125 11.8125 C-35.45651246 15.77607118 -36.32785672 19.48560485 -37 24 C-37.33 24 -37.66 24 -38 24 C-38.33 22.02 -38.66 20.04 -39 18 C-39.66 20.31 -40.32 22.62 -41 25 C-42.77826978 21.44346044 -41.11021635 17.66250719 -40 14 C-36.53129389 6.54870539 -31.6986642 0.89379129 -24.0625 -2.4375 C-15.20755815 -5.51805959 -8.29864967 -4.01946519 0 0 Z " fill="#E2FAFB" transform="translate(132,116)"/>
<path d="M0 0 C5.00929845 0.24435602 7.73570699 1.83117801 11.32421875 5.109375 C14.21352148 8.36910115 16.11208069 12.09934026 18 16 C18.33 16.66 18.66 17.32 19 18 C19.78624861 27.58965514 19.48776258 36.2626183 13.38671875 44.0625 C10.01174989 47.6544846 6.6314755 50.16895155 2 52 C1.34 52 0.68 52 0 52 C0 51.34 0 50.68 0 50 C-2.64 50 -5.28 50 -8 50 C-8 49.34 -8 48.68 -8 48 C-8.66 48 -9.32 48 -10 48 C-9.67 47.34 -9.34 46.68 -9 46 C-8.43410156 46.33644531 -7.86820313 46.67289063 -7.28515625 47.01953125 C-4.65141871 48.14956223 -3.24830555 48.08224934 -0.4375 47.6875 C0.32691406 47.58824219 1.09132813 47.48898438 1.87890625 47.38671875 C4.17759623 47.0191013 4.17759623 47.0191013 7 46 C8.11935073 44.35369807 8.11935073 44.35369807 9 42 C9.53625 40.906875 10.0725 39.81375 10.625 38.6875 C13.20325863 31.57735377 13.28844638 23.14105607 11.05078125 15.94921875 C8.82290654 11.20532149 6.46798085 7.89814974 2 5 C1.34 4.34 0.68 3.68 0 3 C0 2.01 0 1.02 0 0 Z " fill="#E5FBFB" transform="translate(60,75)"/>
<path d="M0 0 C5.30141898 4.7282926 7.71524027 8.50096607 8.28515625 15.50390625 C8.44827429 22.64563949 8.32476523 28.60622071 5 35 C4.01 35.495 4.01 35.495 3 36 C3 35.01 3 34.02 3 33 C2.01 33.66 1.02 34.32 0 35 C-2.63434254 34.67873872 -4.62710097 34.18644952 -7 33 C-8.60474308 26.00790514 -8.60474308 26.00790514 -6.5 22.5 C-3.20226282 20.52135769 -0.77692583 20.70946724 3 21 C3.66 22.32 4.32 23.64 5 25 C5.0809723 22.56183415 5.14046972 20.12635616 5.1875 17.6875 C5.21263672 16.99720703 5.23777344 16.30691406 5.26367188 15.59570312 C5.36964 11.60290216 5.36964 11.60290216 3.61328125 8.14453125 C3.08089844 7.76683594 2.54851562 7.38914062 2 7 C0 5 0 5 -0.125 2.375 C-0.08375 1.59125 -0.0425 0.8075 0 0 Z " fill="#1D9DAF" transform="translate(65,82)"/>
<path d="M0 0 C5.61 0 11.22 0 17 0 C17 0.99 17 1.98 17 3 C16.34 3 15.68 3 15 3 C15 3.66 15 4.32 15 5 C16.32 4.67 17.64 4.34 19 4 C19 4.66 19 5.32 19 6 C17.55367187 6.07347656 17.55367187 6.07347656 16.078125 6.1484375 C14.81484375 6.22320312 13.5515625 6.29796875 12.25 6.375 C10.37054688 6.47941406 10.37054688 6.47941406 8.453125 6.5859375 C5.3515282 6.95784843 3.61207501 7.4010195 1 9 C-1 10 -1 10 -4.125 9.0625 C-5.07375 8.711875 -6.0225 8.36125 -7 8 C-6.34 7.67 -5.68 7.34 -5 7 C-4.5359375 6.01 -4.5359375 6.01 -4.0625 5 C-3 3 -3 3 0 2 C0 1.34 0 0.68 0 0 Z " fill="#02A0B4" transform="translate(106,105)"/>
<path d="M0 0 C0.66 0 1.32 0 2 0 C1.93039063 0.78503906 1.86078125 1.57007813 1.7890625 2.37890625 C1.32950403 9.7244687 1.32950403 9.7244687 4.5625 16.0625 C7.68565022 19.11856585 10.89222677 20.6033571 15 22 C14.34 22.61875 13.68 23.2375 13 23.875 C10.7715451 25.75637427 10.7715451 25.75637427 11 28 C5.77413419 26.61668258 2.96141204 23.32133539 0 19 C-1.375 15.5625 -1.375 15.5625 -2 13 C-1.34 13 -0.68 13 0 13 C0 8.71 0 4.42 0 0 Z " fill="#D2F6F8" transform="translate(91,53)"/>
<path d="M0 0 C2.4375 0.75 2.4375 0.75 4.4375 2.75 C4.77052312 5.8804173 4.91421956 7.92898298 3.3125 10.6875 C1.4375 11.75 1.4375 11.75 -1.625 11.625 C-4.5625 10.75 -4.5625 10.75 -6.5625 7.75 C-6.375 4.6875 -6.375 4.6875 -5.5625 1.75 C-2.5625 -0.25 -2.5625 -0.25 0 0 Z " fill="#E0F8FA" transform="translate(63.5625,103.25)"/>
<path d="M0 0 C0.33 0 0.66 0 1 0 C1.12375 0.969375 1.2475 1.93875 1.375 2.9375 C1.58125 3.948125 1.7875 4.95875 2 6 C2.66 6.33 3.32 6.66 4 7 C0.43394686 13.83493518 -3.12784486 19.19245458 -10 23 C-10.66 23 -11.32 23 -12 23 C-12 22.34 -12 21.68 -12 21 C-11.34 21 -10.68 21 -10 21 C-9.67 19.68 -9.34 18.36 -9 17 C-10.65 17 -12.3 17 -14 17 C-12.00956313 15.67304209 -10.00954842 14.36033335 -8 13.0625 C-2.27783482 9.12851144 -1.43862386 6.75046579 0 0 Z " fill="#DCF8FA" transform="translate(136,59)"/>
<path d="M0 0 C1.8125 1.1875 1.8125 1.1875 3 3 C3.42822025 5.85480169 3.40659584 7.34492892 1.875 9.8125 C-0.85987361 11.54458662 -2.83740129 11.40373601 -6 11 C-8.15502531 7.76746204 -8.46856135 6.74849077 -8 3 C-5.85607122 -0.27231235 -3.76836426 -0.56525464 0 0 Z " fill="#E6FBFB" transform="translate(108,59)"/>
<path d="M0 0 C1.875 1.0625 1.875 1.0625 3 3 C2.6875 6.6875 2.6875 6.6875 2 10 C-4.42548263 11.33359073 -4.42548263 11.33359073 -6.9375 9.875 C-8.36066991 7.36352369 -8.42674516 5.84496772 -8 3 C-5.85607122 -0.27231235 -3.76836426 -0.56525464 0 0 Z " fill="#FBFCFC" transform="translate(127,123)"/>
<path d="M0 0 C0.99 0 1.98 0 3 0 C3.33 2.31 3.66 4.62 4 7 C-2.34241995 8.15316726 -8.56688704 8.09507063 -15 8 C-13.68 6.68 -12.36 5.36 -11 4 C-11.33 3.34 -11.66 2.68 -12 2 C-8.04 2 -4.08 2 0 2 C0 1.34 0 0.68 0 0 Z " fill="#04A0B6" transform="translate(124,83)"/>
<path d="M0 0 C7.34940743 -0.56293334 13.52445584 0.27656211 20 4 C20.99 5.485 20.99 5.485 22 7 C19.03 6.505 19.03 6.505 16 6 C16.515625 6.598125 17.03125 7.19625 17.5625 7.8125 C18.036875 8.534375 18.51125 9.25625 19 10 C18.67 10.99 18.34 11.98 18 13 C17.46375 12.2575 16.9275 11.515 16.375 10.75 C11.7879713 5.43870361 6.47100169 3.23137989 0 1 C0 0.67 0 0.34 0 0 Z " fill="#1C9EAE" transform="translate(56,72)"/>
<path d="M0 0 C0.268125 0.55558594 0.53625 1.11117187 0.8125 1.68359375 C2.10877118 4.21217537 3.53219771 6.6296177 5 9.0625 C5.515625 9.91972656 6.03125 10.77695313 6.5625 11.66015625 C7.67060302 13.4638348 8.82577048 15.23865572 10 17 C9.01 17 8.02 17 7 17 C6.34 18.32 5.68 19.64 5 21 C4.18501438 19.3970947 3.37310073 17.79262722 2.5625 16.1875 C2.11003906 15.29417969 1.65757813 14.40085937 1.19140625 13.48046875 C-0.89566335 9.13525827 -1.17768111 5.7973899 -1 1 C-0.67 0.67 -0.34 0.34 0 0 Z " fill="#159BAF" transform="translate(87,62)"/>
<path d="M0 0 C0.33 0.66 0.66 1.32 1 2 C1.99 2 2.98 2 4 2 C2.57876845 5.30163021 0.87676578 7.3170382 -1.8125 9.6875 C-2.47894531 10.28949219 -3.14539063 10.89148438 -3.83203125 11.51171875 C-6.24783282 13.17013389 -8.11803815 13.62277986 -11 14 C-11 13.34 -11 12.68 -11 12 C-13.64 12 -16.28 12 -19 12 C-19 11.34 -19 10.68 -19 10 C-19.66 10 -20.32 10 -21 10 C-20.67 9.34 -20.34 8.68 -20 8 C-19.15115234 8.50466797 -19.15115234 8.50466797 -18.28515625 9.01953125 C-15.65141871 10.14956223 -14.24830555 10.08224934 -11.4375 9.6875 C-10.29087891 9.53861328 -10.29087891 9.53861328 -9.12109375 9.38671875 C-6.82240377 9.0191013 -6.82240377 9.0191013 -4 8 C-2.87483915 6.16715557 -2.87483915 6.16715557 -2 4 C-1.33333333 2.66666667 -0.66666667 1.33333333 0 0 Z " fill="#D3F8F9" transform="translate(71,113)"/>
<path d="M0 0 C0.33 0 0.66 0 1 0 C1.43142131 5.93204306 0.5673807 9.44238021 -2.04296875 14.74609375 C-3.48925771 18.15225182 -3.73278724 21.32582457 -4 25 C-4.99 25 -5.98 25 -7 25 C-7 25.66 -7 26.32 -7 27 C-7.66 27 -8.32 27 -9 27 C-9.061875 27.721875 -9.12375 28.44375 -9.1875 29.1875 C-10.24456647 32.84657625 -12.20550071 34.49211602 -15 37 C-15.66 36.67 -16.32 36.34 -17 36 C-16.48050781 35.33355469 -15.96101562 34.66710937 -15.42578125 33.98046875 C-7.39153747 23.36219831 -3.3378718 12.77342001 0 0 Z " fill="#199FAC" transform="translate(170,110)"/>
<path d="M0 0 C4.64651378 2.25687812 8.00517012 5.20354239 10 10 C10.20905027 13.4518789 9.96277514 16.67173097 9 20 C8.34 20.33 7.68 20.66 7 21 C6.98582031 20.34773438 6.97164062 19.69546875 6.95703125 19.0234375 C6.64758371 12.90855355 6.64758371 12.90855355 3.9375 7.5625 C0.36031677 4.44197846 -2.48599223 3.37715491 -7 2 C-3.98968256 1.06576355 -3.13349732 0.95550089 0 2 C0 1.34 0 0.68 0 0 Z " fill="#CEF7FA" transform="translate(132,117)"/>
<path d="M0 0 C2 3 2 3 3 5 C5.52733235 5.65555119 5.52733235 5.65555119 8 6 C7.67 6.66 7.34 7.32 7 8 C7.33 8.66 7.66 9.32 8 10 C10.54941373 10.31241371 13.00361513 10.51303421 15.5625 10.625 C16.62887695 10.68300781 16.62887695 10.68300781 17.71679688 10.7421875 C19.47742425 10.83671783 21.23867728 10.91945817 23 11 C18.69425516 13.87049656 15.05427186 13.58373281 10 13 C4.38184675 11.46489897 0.2614694 9.99183099 -3 5 C-2.34 5 -1.68 5 -1 5 C-0.67 3.35 -0.34 1.7 0 0 Z " fill="#2DA4B3" transform="translate(99,64)"/>
<path d="M0 0 C0.33 0 0.66 0 1 0 C1.36897157 5.78055456 0.4843259 10.72464129 -2 16 C-3.60546875 17.765625 -3.60546875 17.765625 -5 19 C-4.67 17.02 -4.34 15.04 -4 13 C-5.32 15.31 -6.64 17.62 -8 20 C-8.33 19.34 -8.66 18.68 -9 18 C-10.65 18.33 -12.3 18.66 -14 19 C-11.89421628 16.89421628 -9.80872776 14.83324984 -7.5625 12.875 C-4.11073777 9.00229116 -2.14132298 4.69268652 0 0 Z " fill="#30A2B0" transform="translate(140,63)"/>
<path d="M0 0 C0.94602608 3.0851746 1.01578237 5.49259007 0.625 8.6875 C0.53476562 9.47511719 0.44453125 10.26273438 0.3515625 11.07421875 C0 13 0 13 -1 14 C-1.15786308 15.85174706 -1.25107356 17.7090911 -1.31640625 19.56640625 C-1.35830078 20.69111328 -1.40019531 21.81582031 -1.44335938 22.97460938 C-1.48267578 24.15861328 -1.52199219 25.34261719 -1.5625 26.5625 C-1.60568359 27.75037109 -1.64886719 28.93824219 -1.69335938 30.16210938 C-1.79983546 33.10794784 -1.90184841 36.0538743 -2 39 C-2.33 39 -2.66 39 -3 39 C-5.58020398 25.34379843 -3.65494595 13.18391219 0 0 Z " fill="#BBEEF3" transform="translate(33,73)"/>
<path d="M0 0 C7.46142321 0.90992966 13.69063486 4.08819361 20 8 C20.33 8.66 20.66 9.32 21 10 C21.92039063 10.44472656 21.92039063 10.44472656 22.859375 10.8984375 C25.29827286 12.15349078 26.52612885 13.50933995 28.25 15.625 C28.77078125 16.25664063 29.2915625 16.88828125 29.828125 17.5390625 C30.40820312 18.26222656 30.40820312 18.26222656 31 19 C30.67 19.66 30.34 20.32 30 21 C29.61070312 20.57589844 29.22140625 20.15179688 28.8203125 19.71484375 C20.47654169 10.9673421 11.05436432 5.73015903 0 1 C0 0.67 0 0.34 0 0 Z " fill="#1F9BAA" transform="translate(123,29)"/>
<path d="M0 0 C0.33 0 0.66 0 1 0 C2.20539731 15.59363182 2.20539731 15.59363182 -2.25 21.3125 C-4.61425856 23.88388377 -7.16695757 25.96296728 -10 28 C-10.66 27.67 -11.32 27.34 -12 27 C-11.278125 26.525625 -10.55625 26.05125 -9.8125 25.5625 C-2.08562103 18.52245472 -0.95902357 10.06259058 0 0 Z " fill="#C9F1F6" transform="translate(88,96)"/>
<path d="M0 0 C2.3515625 0.19921875 2.3515625 0.19921875 5 1 C6.3984375 3.14453125 6.3984375 3.14453125 7.375 5.8125 C7.71273437 6.68519531 8.05046875 7.55789062 8.3984375 8.45703125 C9.02645192 11.11181946 8.90978447 12.4656004 8 15 C7.60167969 14.38511719 7.20335937 13.77023438 6.79296875 13.13671875 C6.26316406 12.32847656 5.73335937 11.52023438 5.1875 10.6875 C4.66542969 9.88699219 4.14335937 9.08648437 3.60546875 8.26171875 C2.19610151 6.2762598 0.77903343 4.6508148 -1 3 C-0.34 3 0.32 3 1 3 C0.67 2.01 0.34 1.02 0 0 Z " fill="#279EAE" transform="translate(134,114)"/>
<path d="M0 0 C2.9375 1 2.9375 1 5 3 C5.43015 5.79597499 5.23400793 8.14510325 5 11 C3.02 11.99 3.02 11.99 1 13 C1.66 12.01 2.32 11.02 3 10 C3.33343551 7.45792029 3.33343551 7.45792029 3 5 C1.18227196 2.79015749 1.18227196 2.79015749 -1.375 2.625 C-4.75163282 3.10737612 -5.84386856 4.44458496 -8 7 C-8 6.01 -8 5.02 -8 4 C-8.66 4 -9.32 4 -10 4 C-9.67 3.01 -9.34 2.02 -9 1 C-5.93570224 -0.53214888 -3.3834358 -0.22938548 0 0 Z " fill="#189DAC" transform="translate(107,57)"/>
<path d="M0 0 C0.6875 1.8125 0.6875 1.8125 1 4 C-0.3125 5.75 -0.3125 5.75 -2 7 C-2.66 7 -3.32 7 -4 7 C-3.70887831 13.41923331 -2.54784971 17.62100206 1 23 C-1.93364327 21.98839887 -2.99671209 21.00464842 -4.8125 18.4375 C-6.35402335 13.97519558 -6.36197986 10.52112841 -5 6 C-3.5265255 3.63760974 -1.98828459 1.98828459 0 0 Z " fill="#2CA0AE" transform="translate(101,125)"/>
<path d="M0 0 C-0.66 0.66 -1.32 1.32 -2 2 C-3.32 2 -4.64 2 -6 2 C-6.33 2.99 -6.66 3.98 -7 5 C-10 7 -10 7 -14 7 C-14.33 8.65 -14.66 10.3 -15 12 C-15.66 12 -16.32 12 -17 12 C-15.92413529 6.97929802 -13.91388074 4.27327411 -10.01953125 1.125 C-6.59723865 -0.78142218 -3.83559719 -0.40374707 0 0 Z " fill="#1E9FAF" transform="translate(60,78)"/>
<path d="M0 0 C0.66 0 1.32 0 2 0 C2 0.99 2 1.98 2 3 C2.66 3.33 3.32 3.66 4 4 C-0.65492322 7.56877447 -5.34849564 7.68175995 -11 8 C-8.7398051 5.7398051 -6.44382086 4.51190284 -3.65625 3 C-1.82445698 1.9843552 -1.82445698 1.9843552 0 0 Z " fill="#1C9EB0" transform="translate(71,120)"/>
<path d="M0 0 C3.17596615 1.04802326 6.07605577 2.38280615 9 4 C8.01 4.495 8.01 4.495 7 5 C4.875 4.0625 4.875 4.0625 3 3 C3.66 4.65 4.32 6.3 5 8 C4.01 7.34 3.02 6.68 2 6 C0.34450469 5.61500109 -1.3222433 5.27206865 -3 5 C-2.34 3.68 -1.68 2.36 -1 1 C-7.435 1.495 -7.435 1.495 -14 2 C-9.5139369 -0.99070873 -5.26174459 -0.60094294 0 0 Z " fill="#37A7B3" transform="translate(125,118)"/>
<path d="M0 0 C2.97 0 5.94 0 9 0 C9.33 0.99 9.66 1.98 10 3 C9.01 3 8.02 3 7 3 C6.01 5.97 5.02 8.94 4 12 C3.34 12 2.68 12 2 12 C2 10.02 2 8.04 2 6 C2.66 6 3.32 6 4 6 C4 4.68 4 3.36 4 2 C2.68 1.34 1.36 0.68 0 0 Z " fill="#0F9CAC" transform="translate(115,119)"/>
<path d="M0 0 C2.93449846 4.40174769 3.16010066 6.62750744 3.1875 11.9375 C3.20167969 13.18402344 3.21585937 14.43054688 3.23046875 15.71484375 C3 19 3 19 1 22 C0.93941406 20.80761719 0.87882812 19.61523438 0.81640625 18.38671875 C0.73198851 16.82030075 0.64734113 15.25389512 0.5625 13.6875 C0.52318359 12.90181641 0.48386719 12.11613281 0.44335938 11.30664062 C0.40146484 10.54931641 0.35957031 9.79199219 0.31640625 9.01171875 C0.26141968 7.96697388 0.26141968 7.96697388 0.20532227 6.90112305 C0.04418847 4.7783428 0.04418847 4.7783428 -1 2 C-0.67 1.34 -0.34 0.68 0 0 Z " fill="#D3F8FA" transform="translate(76,88)"/>
<path d="M0 0 C0.33 1.32 0.66 2.64 1 4 C0.21625 4.391875 -0.5675 4.78375 -1.375 5.1875 C-4.35156418 7.24274669 -4.98823563 8.59679258 -6 12 C-8.97 11.505 -8.97 11.505 -12 11 C-11.319375 10.484375 -10.63875 9.96875 -9.9375 9.4375 C-6.39657527 6.49928587 -3.20890181 3.29212981 0 0 Z " fill="#17A1B4" transform="translate(150,149)"/>
<path d="M0 0 C1.10844919 3.32534757 0.84454356 5.62182575 0 9 C0.66 9 1.32 9 2 9 C1.34 12.63 0.68 16.26 0 20 C-2 18 -2 18 -2.265625 15.64453125 C-2.23466804 10.03358311 -1.88360072 5.29762702 0 0 Z " fill="#3B9EAB" transform="translate(91,119)"/>
<path d="M0 0 C2 1.375 2 1.375 4 4 C4.86804574 8.8744107 4.81147407 13.39580913 2.0625 17.625 C1.381875 18.40875 0.70125 19.1925 0 20 C-0.33 20 -0.66 20 -1 20 C-1 18.35 -1 16.7 -1 15 C-0.01 14.67 0.98 14.34 2 14 C2.21192221 8.80790596 1.5912689 4.873261 0 0 Z " fill="#2899AA" transform="translate(135,124)"/>
<path d="M0 0 C0.33 0.99 0.66 1.98 1 3 C0.34 3 -0.32 3 -1 3 C-1 3.66 -1 4.32 -1 5 C-1.66 5 -2.32 5 -3 5 C-3 5.99 -3 6.98 -3 8 C-3.66 8 -4.32 8 -5 8 C-4.52060632 12.71403788 -4.03165952 16.66579301 -2 21 C-4 19.625 -4 19.625 -6 17 C-6.85804827 12.18172895 -6.82740382 7.63333751 -4.125 3.4375 C-2 1 -2 1 0 0 Z " fill="#269CB0" transform="translate(98,48)"/>
<path d="M0 0 C0.33 0.66 0.66 1.32 1 2 C2.32 2 3.64 2 5 2 C5 1.34 5 0.68 5 0 C5.99 0 6.98 0 8 0 C6.55609075 3.80666984 4.65047197 5.26602582 1 7 C-1 6 -1 6 -1.75 4.0625 C-1.8325 3.381875 -1.915 2.70125 -2 2 C-1.34 1.34 -0.68 0.68 0 0 Z " fill="#1AA1B4" transform="translate(74,117)"/>
<path d="M0 0 C0.33 0.66 0.66 1.32 1 2 C-0.98 2.33 -2.96 2.66 -5 3 C-4.81584568 5.94091587 -4.81584568 5.94091587 -4 9 C-2.04836882 10.43637698 -2.04836882 10.43637698 0 11 C-4.44936709 11.36075949 -4.44936709 11.36075949 -6.8125 9.8125 C-8.42525784 7.35092224 -8.4334014 5.88934264 -8 3 C-5.82311273 -0.32261741 -3.79605352 -0.30778812 0 0 Z " fill="#CFFAFC" transform="translate(127,123)"/>
<path d="M0 0 C0.99 0 1.98 0 3 0 C3 0.99 3 1.98 3 3 C-1.18717947 5.39267398 -4.1562272 6.63179645 -9 6 C-11.375 4.5 -11.375 4.5 -13 3 C-9.97580475 3.58803797 -6.98241547 4.22678118 -4 5 C-4 4.34 -4 3.68 -4 3 C-3.01 2.67 -2.02 2.34 -1 2 C-0.67 1.34 -0.34 0.68 0 0 Z " fill="#25A2B2" transform="translate(64,118)"/>
<path d="M0 0 C2.125 0.375 2.125 0.375 4 1 C4 1.99 4 2.98 4 4 C1.5 6.1875 1.5 6.1875 -1 8 C-1.625 5.125 -1.625 5.125 -2 2 C-1.34 1.34 -0.68 0.68 0 0 Z " fill="#19A2B8" transform="translate(96,116)"/>
<path d="M0 0 C1.98 0.495 1.98 0.495 4 1 C3.67 3.31 3.34 5.62 3 8 C2.01 8 1.02 8 0 8 C-0.79953138 4.71303767 -1.09658936 3.28976808 0 0 Z " fill="#E8FBFC" transform="translate(126,125)"/>
<path d="M0 0 C1.89453125 0.234375 1.89453125 0.234375 4 1 C5.01171875 2.890625 5.01171875 2.890625 5.6875 5.25 C5.9246875 6.05824219 6.161875 6.86648437 6.40625 7.69921875 C7.03120875 10.1209339 7.60160467 12.52994892 8 15 C5.84821844 12.23612808 4.01629579 9.43466931 2.3125 6.375 C1.87550781 5.59898438 1.43851563 4.82296875 0.98828125 4.0234375 C0 2 0 2 0 0 Z " fill="#219FAC" transform="translate(159,57)"/>
<path d="M0 0 C0.33 0 0.66 0 1 0 C1.67090715 7.24579719 -0.41874318 11.75838097 -4 18 C-5.68550367 14.62899267 -3.68863036 11.27985368 -2.5625 7.875 C-2.19801758 6.74384766 -2.19801758 6.74384766 -1.82617188 5.58984375 C-1.22404181 3.72442121 -0.61286537 1.86192317 0 0 Z " fill="#2EA0AF" transform="translate(170,110)"/>
<path d="M0 0 C1.58294782 -0.05437607 3.16644256 -0.09296271 4.75 -0.125 C5.63171875 -0.14820312 6.5134375 -0.17140625 7.421875 -0.1953125 C10.1135858 0.00860498 11.69904974 0.63448279 14 2 C11.11591611 3.36993985 8.99024715 4.2431252 5.8203125 3.46484375 C3.85249013 2.71202914 1.92257176 1.86184251 0 1 C0 0.67 0 0.34 0 0 Z " fill="#3CA7B5" transform="translate(56,72)"/>
<path d="M0 0 C0.625 1.875 0.625 1.875 1 4 C0.34 4.66 -0.32 5.32 -1 6 C-1.165 6.680625 -1.33 7.36125 -1.5 8.0625 C-1.7475 9.0215625 -1.7475 9.0215625 -2 10 C-2.99 10.495 -2.99 10.495 -4 11 C-4.33 11.99 -4.66 12.98 -5 14 C-5.66 14 -6.32 14 -7 14 C-5.53967505 8.68972746 -3.01679014 4.53669968 0 0 Z " fill="#D4F6F9" transform="translate(43,54)"/>
<path d="M0 0 C0.9590625 0.4640625 0.9590625 0.4640625 1.9375 0.9375 C5.92049104 2.31935403 9.81650849 2.6536543 14 3 C14 3.66 14 4.32 14 5 C12.68 5.33 11.36 5.66 10 6 C10 5.34 10 4.68 10 4 C7.36 4 4.72 4 2 4 C2 3.34 2 2.68 2 2 C1.34 2 0.68 2 0 2 C0 1.34 0 0.68 0 0 Z " fill="#E1FCFD" transform="translate(50,121)"/>
<path d="M0 0 C0.99 0.33 1.98 0.66 3 1 C2.401875 1.680625 1.80375 2.36125 1.1875 3.0625 C-1.23587643 6.31674834 -2.5252401 9.23936225 -4 13 C-4.33 13 -4.66 13 -5 13 C-5.22036864 9.14354879 -4.60355101 6.50776784 -3 3 C-2.34 3 -1.68 3 -1 3 C-0.67 2.01 -0.34 1.02 0 0 Z " fill="#D2F8FA" transform="translate(46,80)"/>
<path d="M0 0 C0.90550946 3.01150495 1.06723758 5.43770987 0.75 8.5625 C0.68296875 9.32691406 0.6159375 10.09132813 0.546875 10.87890625 C-0.09694852 13.37602176 -1.05228884 14.36120002 -3 16 C-2.52013969 10.43109483 -1.70084819 5.32932432 0 0 Z " fill="#D2F7FA" transform="translate(33,73)"/>
<path d="M0 0 C1.52299523 2.93720508 2.80100302 5.9168649 4 9 C3.34 9 2.68 9 2 9 C1.34 9.66 0.68 10.32 0 11 C-1.16461426 7.50615721 -1.13568319 4.66344611 -1 1 C-0.67 0.67 -0.34 0.34 0 0 Z " fill="#4EACB9" transform="translate(87,62)"/>
<path d="M0 0 C0.33 0 0.66 0 1 0 C0.64989059 8.35010941 0.64989059 8.35010941 -2.0625 11.0625 C-2.701875 11.371875 -3.34125 11.68125 -4 12 C-4 10.68 -4 9.36 -4 8 C-3.34 8 -2.68 8 -2 8 C-2.33 7.01 -2.66 6.02 -3 5 C-2.01 4.67 -1.02 4.34 0 4 C0 2.68 0 1.36 0 0 Z " fill="#169CAE" transform="translate(135,58)"/>
<path d="M0 0 C5 7.5 5 7.5 5 11 C3.68 10.67 2.36 10.34 1 10 C0.67 6.7 0.34 3.4 0 0 Z " fill="#25A1B5" transform="translate(33,123)"/>
<path d="M0 0 C0.99 0 1.98 0 3 0 C2.67 0.99 2.34 1.98 2 3 C1.8455467 7.17023918 2.01611229 10.94146318 3 15 C2.01 14.34 1.02 13.68 0 13 C-0.29296875 9.9609375 -0.29296875 9.9609375 -0.1875 6.375 C-0.16042969 5.18648438 -0.13335937 3.99796875 -0.10546875 2.7734375 C-0.07066406 1.85820313 -0.03585938 0.94296875 0 0 Z " fill="#D8F7F9" transform="translate(85,60)"/>
<path d="M0 0 C3.45925163 1.2491742 6.14693203 2.67527795 9 5 C6.36 5 3.72 5 1 5 C0.67 3.35 0.34 1.7 0 0 Z " fill="#1399AD" transform="translate(97,79)"/>
<path d="M0 0 C0.33 0 0.66 0 1 0 C1.3125 2.1875 1.3125 2.1875 1 5 C-1.3125 7.8125 -1.3125 7.8125 -4 10 C-4.99 10 -5.98 10 -7 10 C-5.85821872 8.33055479 -4.71147095 6.6645052 -3.5625 5 C-2.92441406 4.071875 -2.28632813 3.14375 -1.62890625 2.1875 C-1.09136719 1.465625 -0.55382812 0.74375 0 0 Z " fill="#29A0AD" transform="translate(160,136)"/>
<path d="M0 0 C0.99 0.33 1.98 0.66 3 1 C3 1.66 3 2.32 3 3 C3.66 3.33 4.32 3.66 5 4 C4.67 4.66 4.34 5.32 4 6 C2.35 5.67 0.7 5.34 -1 5 C-0.67 3.35 -0.34 1.7 0 0 Z " fill="#02A0B8" transform="translate(94,78)"/>
<path d="M0 0 C0.99 0 1.98 0 3 0 C3 1.65 3 3.3 3 5 C2.01 5.495 2.01 5.495 1 6 C0.34 5.67 -0.32 5.34 -1 5 C-0.67 3.35 -0.34 1.7 0 0 Z " fill="#EAFDFD" transform="translate(96,123)"/>
<path d="M0 0 C-0.33 1.65 -0.66 3.3 -1 5 C-2.32 5 -3.64 5 -5 5 C-5 3.68 -5 2.36 -5 1 C-3 0 -3 0 0 0 Z " fill="#E7FCFD" transform="translate(77,110)"/>
<path d="M0 0 C0.99 0 1.98 0 3 0 C3 0.66 3 1.32 3 2 C3.66 2.33 4.32 2.66 5 3 C4.67 4.65 4.34 6.3 4 8 C1 6 1 6 0.3125 2.875 C0.209375 1.92625 0.10625 0.9775 0 0 Z " fill="#0F9FB4" transform="translate(153,46)"/>
<path d="M0 0 C0 0.66 0 1.32 0 2 C-2.75 4.1875 -2.75 4.1875 -6 6 C-8.203125 5.61328125 -8.203125 5.61328125 -10 5 C-8.71186658 4.16121545 -7.41936744 3.32913217 -6.125 2.5 C-5.40570313 2.0359375 -4.68640625 1.571875 -3.9453125 1.09375 C-2 0 -2 0 0 0 Z " fill="#DCFBFD" transform="translate(70,33)"/>
<path d="M0 0 C4.84659077 0.59104765 8.60748167 1.97944157 13 4 C12.34 4.66 11.68 5.32 11 6 C7.37 4.35 3.74 2.7 0 1 C0 0.67 0 0.34 0 0 Z " fill="#33A4B6" transform="translate(123,29)"/>
<path d="M0 0 C0 0.99 0 1.98 0 3 C-4.17737474 4.59138085 -7.53160785 5.21278058 -12 5 C-12 4.67 -12 4.34 -12 4 C-11.30132812 3.79503906 -10.60265625 3.59007812 -9.8828125 3.37890625 C-8.97273438 3.10949219 -8.06265625 2.84007812 -7.125 2.5625 C-6.22007813 2.29566406 -5.31515625 2.02882812 -4.3828125 1.75390625 C-2.01724619 1.07386174 -2.01724619 1.07386174 0 0 Z " fill="#CDF5F9" transform="translate(130,147)"/>
<path d="M0 0 C0.33 1.32 0.66 2.64 1 4 C-1.375 5.5625 -1.375 5.5625 -4 7 C-4.66 6.67 -5.32 6.34 -6 6 C-4.02 4.02 -2.04 2.04 0 0 Z " fill="#31A5B8" transform="translate(150,149)"/>
<path d="M0 0 C3.80666984 1.44390925 5.26602582 3.34952803 7 7 C6.67 7.66 6.34 8.32 6 9 C3.66475218 6.74259377 1.81294927 4.7194239 0 2 C0 1.34 0 0.68 0 0 Z " fill="#239FAB" transform="translate(78,79)"/>
<path d="M0 0 C0.33 0 0.66 0 1 0 C1.25 2.25 1.25 2.25 1 5 C-1 7.3125 -1 7.3125 -3 9 C-3 7.35 -3 5.7 -3 4 C-2.01 3.67 -1.02 3.34 0 3 C0 2.01 0 1.02 0 0 Z " fill="#19A0AA" transform="translate(137,135)"/>
<path d="M0 0 C0.66 0 1.32 0 2 0 C1.55090939 1.48199902 1.09043436 2.96055236 0.625 4.4375 C0.36976563 5.26121094 0.11453125 6.08492187 -0.1484375 6.93359375 C-1 9 -1 9 -3 10 C-2.67 8.02 -2.34 6.04 -2 4 C-1.34 4 -0.68 4 0 4 C-0.33 3.01 -0.66 2.02 -1 1 C-0.67 0.67 -0.34 0.34 0 0 Z " fill="#D5F8FA" transform="translate(163,126)"/>
<path d="M0 0 C0.66 0 1.32 0 2 0 C0.50902342 3.7952131 -1.75700849 5.61042731 -5 8 C-5.66 7.67 -6.32 7.34 -7 7 C-6.21625 6.401875 -5.4325 5.80375 -4.625 5.1875 C-1.85425677 3.08914751 -1.85425677 3.08914751 0 0 Z " fill="#D8F8FB" transform="translate(83,116)"/>
<path d="M0 0 C1 3 1 3 -0.4375 6.1875 C-1.2109375 7.5796875 -1.2109375 7.5796875 -2 9 C-2.66 7.68 -3.32 6.36 -4 5 C-2.68 3.35 -1.36 1.7 0 0 Z " fill="#089DB0" transform="translate(136,75)"/>
<path d="M0 0 C1.875 0.3125 1.875 0.3125 4 1 C4.66 1.99 5.32 2.98 6 4 C4.02 4.33 2.04 4.66 0 5 C0 3.35 0 1.7 0 0 Z " fill="#D9F8FA" transform="translate(91,67)"/>
<path d="M0 0 C4.455 1.98 4.455 1.98 9 4 C8.01 4.66 7.02 5.32 6 6 C3.00306862 5.00102287 1.97290587 4.34869747 0 2 C0 1.34 0 0.68 0 0 Z " fill="#269FB2" transform="translate(64,161)"/>
<path d="M0 0 C0.33 0.66 0.66 1.32 1 2 C1.99 2.33 2.98 2.66 4 3 C0.7 3.33 -2.6 3.66 -6 4 C-4.04783565 2.04783565 -2.46800047 1.15173355 0 0 Z " fill="#46A4B1" transform="translate(66,124)"/>
<path d="M0 0 C0.33 0 0.66 0 1 0 C0.67 2.97 0.34 5.94 0 9 C-0.99 9.33 -1.98 9.66 -3 10 C-2.01 6.7 -1.02 3.4 0 0 Z " fill="#2AA1B2" transform="translate(78,107)"/>
<path d="M0 0 C3.00617269 3.00617269 2.59585316 5.82381598 3 10 C1.5 8.9375 1.5 8.9375 0 7 C-0.1875 3.3125 -0.1875 3.3125 0 0 Z " fill="#D1F5F8" transform="translate(165,70)"/>
<path d="M0 0 C1.32 0 2.64 0 4 0 C4.33 0.99 4.66 1.98 5 3 C4.67 3.66 4.34 4.32 4 5 C2.68 4.34 1.36 3.68 0 3 C0 2.01 0 1.02 0 0 Z " fill="#F7FDFC" transform="translate(96,73)"/>
</svg>
