<?xml version="1.0" encoding="UTF-8" standalone="no"?><!DOCTYPE svg PUBLIC "-//W3C//DTD SVG 1.1//EN" "http://www.w3.org/Graphics/SVG/1.1/DTD/svg11.dtd"><svg width="100%" height="100%" viewBox="0 0 32 32" version="1.1" xmlns="http://www.w3.org/2000/svg" xmlns:xlink="http://www.w3.org/1999/xlink" xml:space="preserve" xmlns:serif="http://www.serif.com/" style="fill-rule:evenodd;clip-rule:evenodd;stroke-linejoin:round;stroke-miterlimit:2;"><rect x="0" y="0" width="32" height="32" style="fill:#fff;"/><g><rect x="3.613" y="23.962" width="25.925" height="5.293" style="fill:#5c2874;"/><path d="M30.268,17.14c-0.259,-0.259 -2.494,-2.329 -2.988,-2.777c-0.058,-0.052 -0.121,-0.099 -0.188,-0.141l-1.835,-1.034c-0.057,-0.035 -0.093,-0.097 -0.094,-0.164c-0.106,-1.14 -0.503,-2.234 -1.153,-3.176c-0.252,-0.379 -0.45,-0.791 -0.588,-1.224c-0.023,-0.069 -0.235,-0.659 -0.259,-0.753c-0.188,-0.588 -0.47,-1.388 -0.588,-1.788c-0.041,-0.122 0.021,-0.258 0.141,-0.306c0.462,-0.158 0.832,-0.511 1.012,-0.965c0.18,-0.453 0.118,-0.494 0.918,-0.682c0.353,-0.094 0.448,-0.541 0.448,-0.941c-0,-0.471 -0.471,-0.494 -0.824,-0.4c-0.047,0.023 -0.094,0.023 -0.141,0.069c-0.118,0.069 -0.245,0.124 -0.376,0.165c-0.4,0.117 -1.034,0.282 -1.741,0.47c-0.227,0.074 -0.468,0.098 -0.706,0.069c-0.157,-0.015 -0.315,-0.007 -0.47,0.024c-0.154,0.041 -0.298,0.113 -0.424,0.211c-0.249,0.17 -0.529,0.29 -0.823,0.353l-1.318,0.353c0.311,0.191 0.67,0.289 1.034,0.283c-0.338,0.47 -0.859,0.778 -1.435,0.847c0.33,0.16 0.692,0.241 1.059,0.235c-0.232,0.552 -0.713,0.962 -1.294,1.106c0.448,0.203 0.964,0.203 1.412,-0c-0.312,0.465 -0.81,0.773 -1.365,0.847c0.334,0.259 0.759,0.37 1.177,0.305c-0.27,0.202 -0.609,0.287 -0.942,0.235c-0.468,-0.043 -0.876,-0.342 -1.058,-0.776c-0.107,-0.459 -0.461,-0.823 -0.918,-0.941c-0.353,-0.117 -0.259,-0.235 -0.259,-0.235c0.061,-0.083 0.156,-0.135 0.259,-0.141c0.141,-0.023 0.259,-0.094 0.188,-0.235c-0.005,-0.036 -0.022,-0.068 -0.047,-0.094c0,-0.024 0.024,-0.024 0.024,-0.069c0.023,-0.047 -0,-0.069 -0,-0.069c-0,-0 0.023,-0.069 -0,-0.069c-0.024,-0.024 -0.048,-0.047 -0.024,-0.094c0.024,-0.047 0.094,-0.047 0.069,-0.118c0,-0.023 0,-0.047 -0.069,-0.069c-0.061,-0.048 -0.116,-0.103 -0.165,-0.164c-0.017,-0.037 -0.025,-0.078 -0.023,-0.118c-0,-0.047 -0,-0.069 -0.023,-0.094l-0.118,-0.212c-0.094,-0.204 -0.293,-0.34 -0.517,-0.353c-0.303,-0.04 -0.609,0.065 -0.824,0.283c-0.145,0.19 -0.371,0.303 -0.611,0.305c-0.165,-0.023 -0.118,0.069 -0.094,0.118c0.074,0.099 0.184,0.166 0.306,0.188c0.188,0.047 0.117,0.118 0.046,0.141c-0.235,0.069 -0.353,0.236 0.094,0.4c0.189,0.069 0.189,0.189 0.069,0.165c-0.235,-0.047 -0.069,0.141 0.189,0.212c0.188,0.069 0.259,0.165 0.235,0.282c-0.069,0.377 -0.377,0.918 -0.541,1.764c-0.141,0.871 0.376,1.082 1.034,1.2c0.235,0.047 0.235,0.283 0.235,0.471c-0,0.282 -0.448,0.353 -1.2,0.376c-2.258,0.094 -3.435,0.33 -4.234,1.552c-0.048,0.066 -0.134,0.094 -0.212,0.069c-0.188,-0.069 -0.541,-0.189 -0.8,-0.306c-0.282,-0.094 -0.564,-0.212 -0.87,-0.306c-0.982,-0.292 -2.047,0.079 -2.635,0.918c-0.4,0.588 -0.706,1.717 -2.4,2.188c0.322,0.281 0.771,0.37 1.176,0.235c0.406,-0.136 -0.823,1.694 -2.658,1.93c-0,0 0.306,0.659 1.482,0.635c-0.614,0.358 -1.312,0.545 -2.023,0.542c0.545,0.736 1.518,1.025 2.376,0.705c-0.035,0.268 -0.217,0.495 -0.47,0.588c0.882,-0.031 1.722,-0.392 2.352,-1.011c-0.079,0.316 -0.189,0.623 -0.329,0.917c2.212,-1.482 2.212,-5.34 2.212,-5.34c-0.003,-0.056 0.005,-0.112 0.023,-0.165c0.117,-1.2 0.918,-1.412 2.211,-1.012c0.074,0.02 0.125,0.087 0.125,0.163c0,0.017 -0.002,0.033 -0.007,0.049c-0.231,1.047 0.059,2.144 0.776,2.941c0.165,0.165 0.118,0.282 -0.023,0.448l-0.682,0.824c-0.11,0.135 -0.246,0.247 -0.4,0.329c-0.228,0.081 -0.38,0.299 -0.377,0.541c0,0.094 -0.023,0.165 -0.023,0.235l-0.069,0.377l-0.188,0.917c-0.283,1.058 -0.988,1.458 -0.729,2.117c0.141,0.353 -0.4,0.471 -0.424,0.588c-0.094,0.306 0.517,0.918 0.729,0.871c0.069,-0.024 0.259,-0.353 0.235,-1.106c0,-0.141 1.365,-3.388 1.365,-3.388c0.051,-0.113 0.133,-0.211 0.235,-0.282l1.435,-0.941l-0.118,0.329c-0.065,0.178 -0.169,0.339 -0.305,0.47c-0.07,0.073 -0.118,0.162 -0.141,0.259c-0.07,0.211 -0.025,0.443 0.117,0.612l1.388,1.811c0.706,1.059 0.306,1.083 0.894,1.483c0.471,0.329 0.259,0.941 0.353,1.034c0.212,0.212 1.106,0.165 1.153,0.047c0,-0.329 -0.448,-0.87 -0.682,-1.058l-1.741,-3.034c-0.064,-0.107 -0.096,-0.229 -0.094,-0.353c0.013,-0.187 0.108,-0.359 0.259,-0.471l1.106,-0.893c0.644,-0.492 1.14,-1.151 1.435,-1.906c0.188,-0.471 0.799,-0.612 1.199,-0.612l1.648,0c-0.204,0.284 -0.37,0.592 -0.494,0.918c-0,0.165 1.176,0.494 1.576,0.494c0.066,0.005 0.132,-0.011 0.188,-0.047c0.069,-0.047 0.047,-0.141 -0.023,-0.188c-0.214,-0.093 -0.4,-0.238 -0.542,-0.423c-0.055,-0.092 -0.08,-0.199 -0.069,-0.306c0.034,-0.257 0.238,-0.46 0.494,-0.494l2.753,-0.682c0.181,-0.052 0.375,0.026 0.471,0.188l1.223,2.094c0.115,0.184 0.096,0.424 -0.047,0.588l-0.777,0.917c-0.09,0.113 -0.214,0.195 -0.353,0.235c-0.293,0.085 -0.477,0.382 -0.423,0.682c-0.088,0.049 -0.194,0.049 -0.282,0c-0.118,-0.023 -0.306,-0.117 -0.377,-0.069c-0.141,0.069 -0.517,1.13 -0.282,1.177c0.565,0.069 1.2,-0.494 1.2,-0.494l2.4,-2.423c0.127,-0.13 0.173,-0.321 0.117,-0.494l-0.517,-1.859c-0.006,-0.02 -0.009,-0.04 -0.009,-0.061c-0,-0.114 0.093,-0.207 0.207,-0.207c0.02,-0 0.041,0.003 0.061,0.009l1.999,0.517c0.14,0.029 0.27,0.094 0.377,0.189c0.107,0.094 1.93,1.435 2.046,1.529c0.177,0.128 0.309,0.309 0.377,0.517c0.079,0.297 0.38,0.484 0.682,0.423c0.018,0.019 0.026,0.044 0.023,0.069c-0.023,0.188 -0.164,0.4 -0.046,0.448c0.517,0.235 1.199,0.165 1.199,0.024c0.141,-0.306 -0.376,-0.777 -0.705,-1.082" style="fill:#5c2874;fill-rule:nonzero;"/></g></svg>