<?xml version="1.0" encoding="UTF-8"?>
<svg version="1.1" xmlns="http://www.w3.org/2000/svg" width="400" height="400">
<path d="M0 0 C132 0 264 0 400 0 C400 132 400 264 400 400 C268 400 136 400 0 400 C0 268 0 136 0 0 Z " fill="#69005E" transform="translate(0,0)"/>
<path d="M0 0 C15.51 0 31.02 0 47 0 C48.98 5.61 50.96 11.22 53 17 C55.12641047 22.68188697 55.12641047 22.68188697 57.28686523 28.35009766 C57.65846268 29.3153537 57.65846268 29.3153537 58.03756714 30.30010986 C58.42115891 31.29624298 58.42115891 31.29624298 58.8125 32.3125 C59.36220815 33.74522332 59.9117637 35.17800521 60.46118164 36.61083984 C63.76547665 45.22096063 67.08924819 53.82356773 70.4140625 62.42578125 C70.97703285 63.88238914 70.97703285 63.88238914 71.55137634 65.36842346 C73.39487865 70.13733047 75.23974375 74.9057028 77.0871582 79.6730957 C78.75471789 83.97682072 80.41272716 88.28415295 82.06854248 92.59240723 C82.98011179 94.94859378 83.90677891 97.29835797 84.83642578 99.64746094 C85.39251883 101.0747661 85.94836056 102.50216921 86.50390625 103.9296875 C86.98802979 105.15671387 87.47215332 106.38374023 87.97094727 107.64794922 C89.89507124 113.91561758 88.82028853 118.34046401 86.4375 124.28515625 C86.1708252 124.97391342 85.90415039 125.66267059 85.62939453 126.37229919 C84.76216613 128.60609259 83.88113743 130.83416111 83 133.0625 C82.39350597 134.61809024 81.78804371 136.17408312 81.18359375 137.73046875 C79.99281428 140.79362389 78.79743942 143.85491133 77.59765625 146.91455078 C75.69803749 151.76365796 73.84297978 156.62912241 72 161.5 C69.9207157 166.97221623 67.83212526 172.44079464 65.7331543 177.90548706 C64.60322995 180.84760224 63.47472899 183.79026281 62.34619141 186.73291016 C61.79839062 188.16010031 61.24993099 189.58703782 60.70068359 191.01367188 C55.97504028 203.2891421 51.49669508 215.63408852 47 228 C31.49 228 15.98 228 0 228 C2.24367794 217.90344926 2.24367794 217.90344926 4.20703125 213.44921875 C4.64740723 212.43005371 5.0877832 211.41088867 5.54150391 210.36083984 C6.26345947 208.69722412 6.26345947 208.69722412 7 207 C8.07720952 204.42761441 9.13830611 201.84867365 10.19921875 199.26953125 C10.76954683 197.8875054 11.33994197 196.50550722 11.91040039 195.12353516 C12.50285864 193.68656125 13.09522329 192.24954874 13.6875 190.8125 C13.99203094 190.07376648 14.29656189 189.33503296 14.61032104 188.57391357 C19.04356671 177.81405841 23.42469781 167.03560991 27.71557617 156.21801758 C30.40482947 149.44448694 33.19572206 142.73026704 36 136 C9.93 136 -16.14 136 -43 136 C-43 121.48 -43 106.96 -43 92 C-16.93 92 9.14 92 36 92 C30.06 77.645 30.06 77.645 24 63 C18.5625 49.1875 18.5625 49.1875 15.890625 42.328125 C13.78135341 36.94369751 11.61677318 31.58442341 9.421875 26.234375 C9.12091415 25.49967484 8.81995331 24.76497467 8.50987244 24.00801086 C7.0344129 20.40827698 5.55295647 16.81118035 4.06274414 13.2175293 C3.52731696 11.91462866 2.99207004 10.61165393 2.45703125 9.30859375 C1.98241455 8.16189209 1.50779785 7.01519043 1.01879883 5.83374023 C0 3 0 3 0 0 Z " fill="#FD506F" transform="translate(221,86)"/>
<path d="M0 0 C14.52 0 29.04 0 44 0 C44 75.24 44 150.48 44 228 C29.48 228 14.96 228 0 228 C0 152.76 0 77.52 0 0 Z " fill="#FC4F6F" transform="translate(112,86)"/>
<path d="M0 0 C5.28 0 10.56 0 16 0 C16 0.33 16 0.66 16 1 C10.06 1.495 10.06 1.495 4 2 C3.1759309 7.73941757 2.86069866 13.27949702 2.88647461 19.07284546 C2.88632575 19.95214993 2.88617689 20.8314544 2.88602352 21.73740447 C2.88671453 24.66529327 2.89454075 27.59311828 2.90234375 30.52099609 C2.90426405 32.62727829 2.90572732 34.73356094 2.9067688 36.83984375 C2.90992391 41.3654503 2.91618339 45.89103808 2.92483521 50.41663742 C2.93836815 57.56727711 2.94425353 64.7179106 2.94897461 71.86856079 C2.96006559 87.03738219 2.97961888 102.20618867 3 117.375 C3.02200864 133.77137583 3.04257566 150.16774568 3.05341816 166.56413329 C3.05841244 173.67874131 3.0682889 180.79332111 3.08184814 187.90791774 C3.0892819 192.32201893 3.0926181 196.73611617 3.0948143 201.15022278 C3.0966938 203.20378986 3.10030947 205.25735616 3.10574722 207.3109169 C3.1129124 210.10364855 3.11400327 212.89631718 3.11352539 215.6890564 C3.11712035 216.51043669 3.12071531 217.33181699 3.12441921 218.17808759 C3.11409311 223.77181379 3.11409311 223.77181379 2 226 C1.34 226 0.68 226 0 226 C0 151.42 0 76.84 0 0 Z " fill="#F3537E" transform="translate(113,87)"/>
<path d="M0 0 C26.07 0 52.14 0 79 0 C79 0.33 79 0.66 79 1 C54.91 1 30.82 1 6 1 C6 2.32 6 3.64 6 5 C5.01 5.33 4.02 5.66 3 6 C2.67 6.66 2.34 7.32 2 8 C3.32 7.34 4.64 6.68 6 6 C6 18.33333333 6 30.66666667 6 43 C30.09 43 54.18 43 79 43 C79 43.33 79 43.66 79 44 C52.93 44 26.86 44 0 44 C0 29.48 0 14.96 0 0 Z " fill="#F3507B" transform="translate(178,178)"/>
<path d="M0 0 C2 2 2 2 5 12 C-21.07 12 -47.14 12 -74 12 C-74 11.67 -74 11.34 -74 11 C-72.75758293 10.98786972 -72.75758293 10.98786972 -71.49006653 10.97549438 C-63.67721884 10.89749345 -55.86454217 10.81018614 -48.05191517 10.71247292 C-44.03554031 10.66256675 -40.01919102 10.61623633 -36.00268555 10.578125 C-32.12518294 10.54120026 -28.2478973 10.49482103 -24.37058067 10.44193649 C-22.89268494 10.42343068 -21.41474277 10.40830867 -19.93677711 10.39665604 C-17.86363217 10.37972791 -15.79097998 10.35067826 -13.71801758 10.31884766 C-12.53887283 10.30552399 -11.35972809 10.29220032 -10.14485168 10.2784729 C-6.79090294 9.9814847 -3.47279994 9.47279994 -1 7 C-0.63239269 4.67182036 -0.29758419 2.3381615 0 0 Z " fill="#7C0045" transform="translate(252,166)"/>
<path d="M0 0 C26.07 0 52.14 0 79 0 C78.01 3.3 77.02 6.6 76 10 C73.18167487 8.59083743 72.97406539 6.92219617 72 4 C72 3.01 72 2.02 72 1 C48.24 1 24.48 1 0 1 C0 0.67 0 0.34 0 0 Z " fill="#7C0046" transform="translate(178,222)"/>
<path d="M0 0 C15.51 0 31.02 0 47 0 C50 8 50 8 50 11 C49.01 10.67 48.02 10.34 47 10 C47 8.68 47 7.36 47 6 C46.34 6 45.68 6 45 6 C44.505 4.515 44.505 4.515 44 3 C35.64571234 1.81453125 27.35239405 1.88659378 18.9375 1.9375 C17.48502759 1.94252586 16.03255349 1.94708684 14.58007812 1.95117188 C11.05330883 1.96123111 7.52677809 1.98082115 4 2 C4.66 6.29 5.32 10.58 6 15 C3.75848118 12.75848118 3.03698675 10.9932888 1.875 8.0625 C1.52179688 7.18722656 1.16859375 6.31195313 0.8046875 5.41015625 C0 3 0 3 0 0 Z " fill="#E14D81" transform="translate(221,86)"/>
<path d="M0 0 C13.86 0 27.72 0 42 0 C42 0.33 42 0.66 42 1 C39.03 1 36.06 1 33 1 C33 1.99 33 2.98 33 4 C27.06 4 21.12 4 15 4 C15 3.34 15 2.68 15 2 C10.05 1.67 5.1 1.34 0 1 C0 0.67 0 0.34 0 0 Z " fill="#710055" transform="translate(113,314)"/>
<path d="M0 0 C0.33 0 0.66 0 1 0 C1.125 5.75 1.125 5.75 0 8 C14.19 8 28.38 8 43 8 C43.33 5.36 43.66 2.72 44 0 C44.66 0 45.32 0 46 0 C45.54177532 3.46941546 45.10868317 6.67395049 44 10 C28.49 10 12.98 10 -3 10 C-1 1 -1 1 0 0 Z " fill="#E34D83" transform="translate(224,304)"/>
<path d="M0 0 C-0.66 2.97 -1.32 5.94 -2 9 C12.85 9 27.7 9 43 9 C43 9.33 43 9.66 43 10 C42.14222458 10.0154612 42.14222458 10.0154612 41.26712036 10.03123474 C35.33014214 10.13918315 29.39331929 10.25379042 23.45654297 10.37231445 C21.23912803 10.41570078 19.02167888 10.45737308 16.80419922 10.49731445 C13.62196528 10.55492754 10.43990416 10.61864764 7.2578125 10.68359375 C6.26194122 10.70030624 5.26606995 10.71701874 4.24002075 10.73423767 C3.31921722 10.75418289 2.3984137 10.77412811 1.44970703 10.79467773 C0.6369632 10.81022202 -0.17578064 10.8257663 -1.01315308 10.84178162 C-3.07438267 10.88102414 -3.07438267 10.88102414 -5 12 C-5.36666667 4.66666667 -5.36666667 4.66666667 -3.625 1.5 C-2 0 -2 0 0 0 Z " fill="#79004A" transform="translate(223,305)"/>
<path d="M0 0 C1.22385299 3.67155896 0.64312686 4.615729 -0.73046875 8.15625 C-1.12169922 9.17976562 -1.51292969 10.20328125 -1.91601562 11.2578125 C-2.33560547 12.32773438 -2.75519531 13.39765625 -3.1875 14.5 C-3.9940101 16.59354955 -4.80000243 18.68729865 -5.60546875 20.78125 C-6.0029834 21.80734375 -6.40049805 22.8334375 -6.81005859 23.890625 C-8.60143488 28.57157871 -10.30712666 33.28267465 -12 38 C-12.33 38 -12.66 38 -13 38 C-12.67 35.03 -12.34 32.06 -12 29 C-12.66 29 -13.32 29 -14 29 C-13.67 27.68 -13.34 26.36 -13 25 C-12.01 25.33 -11.02 25.66 -10 26 C-9.66226562 24.90300781 -9.32453125 23.80601562 -8.9765625 22.67578125 C-8.52614898 21.22132093 -8.07562216 19.76689569 -7.625 18.3125 C-7.40328125 17.59126953 -7.1815625 16.87003906 -6.953125 16.12695312 C-5.77947281 12.3471027 -4.54096768 8.65079726 -3 5 C-2.34 5 -1.68 5 -1 5 C-0.67 3.35 -0.34 1.7 0 0 Z " fill="#E74F7C" transform="translate(297,231)"/>
<path d="M0 0 C1.31538327 4.15771494 0.34433068 6.8879297 -1 11 C-1.66 11 -2.32 11 -3 11 C-3 12.65 -3 14.3 -3 16 C-3.66 16 -4.32 16 -5 16 C-5.07476562 16.58265625 -5.14953125 17.1653125 -5.2265625 17.765625 C-6.43072757 25.27394835 -9.37267327 31.36130768 -13 38 C-14.41153712 33.76538863 -12.66844254 30.98510463 -11.03515625 27.05078125 C-10.72299667 26.27816452 -10.4108371 25.50554779 -10.08921814 24.70951843 C-9.08914554 22.24014884 -8.07602126 19.77637618 -7.0625 17.3125 C-6.38259784 15.64032569 -5.70355049 13.96780354 -5.02539062 12.29492188 C-3.36015628 8.19251103 -1.68319624 4.09507209 0 0 Z " fill="#E64F7D" transform="translate(239,266)"/>
<path d="M0 0 C1.10149236 3.72922591 0.72276797 5.36180548 -0.875 8.9375 C-2.36602818 12.31056026 -3.34214943 15.37293201 -4 19 C-4.64389782 21.00744615 -5.30562253 23.00945124 -6 25 C-6.66 25 -7.32 25 -8 25 C-8.309375 26.093125 -8.61875 27.18625 -8.9375 28.3125 C-9.58337897 30.55407994 -10.2623117 32.7869351 -11 35 C-11.66 35 -12.32 35 -13 35 C-10.54339947 27.36903159 -7.71145927 19.91028089 -4.8125 12.4375 C-4.11737305 10.63829102 -4.11737305 10.63829102 -3.40820312 8.80273438 C-2.27397475 5.8677723 -1.13786515 2.9335536 0 0 Z " fill="#800650" transform="translate(295,240)"/>
<path d="M0 0 C1.31538327 4.15771494 0.34433068 6.8879297 -1 11 C-1.66 11 -2.32 11 -3 11 C-3.103125 11.969375 -3.20625 12.93875 -3.3125 13.9375 C-4.13188141 19.68487529 -5.77455231 25.16182846 -9 30 C-9.66 30 -10.32 30 -11 30 C-9.0173911 22.93487572 -6.592956 16.16273165 -3.8125 9.375 C-3.44447266 8.46621094 -3.07644531 7.55742187 -2.69726562 6.62109375 C-1.80216521 4.41240441 -0.9030465 2.20544952 0 0 Z " fill="#E84E7E" transform="translate(251,236)"/>
<path d="M0 0 C3.14553357 1.57276679 3.39727418 4.20663182 4.6015625 7.44140625 C4.8428891 8.08367661 5.0842157 8.72594696 5.33285522 9.38768005 C6.10357482 11.44353091 6.86436918 13.50289782 7.625 15.5625 C8.14518474 16.95532053 8.66601003 18.34790201 9.1875 19.74023438 C10.46578291 23.15741164 11.73518848 26.57781027 13 30 C12.34 30.33 11.68 30.66 11 31 C8 24.375 8 24.375 8 21 C7.34 21 6.68 21 6 21 C5.71125 20.0925 5.4225 19.185 5.125 18.25 C4.1589297 15.17351374 4.1589297 15.17351374 3 13.15625 C1.78720879 10.54116895 1.34830627 8.08983759 0.875 5.25 C0.70742188 4.26515625 0.53984375 3.2803125 0.3671875 2.265625 C0.24601562 1.51796875 0.12484375 0.7703125 0 0 Z " fill="#E84C79" transform="translate(271,99)"/>
<path d="M0 0 C1.73693665 2.60540498 2.80682023 4.78501252 3.9453125 7.66796875 C4.29980469 8.56064453 4.65429688 9.45332031 5.01953125 10.37304688 C5.38433594 11.30181641 5.74914062 12.23058594 6.125 13.1875 C6.49753906 14.12787109 6.87007812 15.06824219 7.25390625 16.03710938 C8.17238701 18.35686205 9.08762171 20.6778419 10 23 C9.01 23.33 8.02 23.66 7 24 C6.67 21.69 6.34 19.38 6 17 C5.01 17 4.02 17 3 17 C2.86722656 16.37351563 2.73445312 15.74703125 2.59765625 15.1015625 C2.42105469 14.28429687 2.24445313 13.46703125 2.0625 12.625 C1.88847656 11.81289062 1.71445313 11.00078125 1.53515625 10.1640625 C1.07669307 7.970537 1.07669307 7.970537 0 6 C-0.039992 4.00039988 -0.04346799 1.99952758 0 0 Z " fill="#810453" transform="translate(242,141)"/>
<path d="M0 0 C0.99 0.33 1.98 0.66 3 1 C4.0234375 3.58203125 4.0234375 3.58203125 5 7 C5.42539063 8.24136719 5.85078125 9.48273438 6.2890625 10.76171875 C6.73442406 12.0702958 7.17973598 13.37888975 7.625 14.6875 C7.85445312 15.35072266 8.08390625 16.01394531 8.3203125 16.69726562 C9.30102275 19.59561466 10 21.91722654 10 25 C7.78035859 22.78035859 7.15961366 21.19628099 6.0546875 18.28125 C5.70019531 17.34925781 5.34570312 16.41726562 4.98046875 15.45703125 C4.61566406 14.48121094 4.25085938 13.50539062 3.875 12.5 C3.50246094 11.52417969 3.12992188 10.54835937 2.74609375 9.54296875 C0 2.27034684 0 2.27034684 0 0 Z " fill="#E84E7F" transform="translate(241,136)"/>
<path d="M0 0 C2.57833439 2.57833439 3.3761471 5.10325781 4.6875 8.5 C5.14511719 9.6653125 5.60273438 10.830625 6.07421875 12.03125 C7 15 7 15 6 17 C2.06153846 13.67692308 2.06153846 13.67692308 1.75 10.25 C1.8325 9.5075 1.915 8.765 2 8 C1.01 8.33 0.02 8.66 -1 9 C-0.67 6.03 -0.34 3.06 0 0 Z " fill="#79055A" transform="translate(233,119)"/>
<path d="M0 0 C0.33 0 0.66 0 1 0 C1.125 7.625 1.125 7.625 0 11 C-0.99 11.495 -0.99 11.495 -2 12 C-2.90725434 14.11327425 -2.90725434 14.11327425 -3.625 16.5625 C-3.88539063 17.38878906 -4.14578125 18.21507812 -4.4140625 19.06640625 C-4.60742188 19.70449219 -4.80078125 20.34257812 -5 21 C-5.66 21 -6.32 21 -7 21 C-5.180206 13.74839665 -2.93841629 6.87619244 0 0 Z " fill="#83054F" transform="translate(275,292)"/>
<path d="M0 0 C1.0625 1.8125 1.0625 1.8125 2 4 C1.33333333 6 0.66666667 8 0 10 C0.66 10 1.32 10 2 10 C2.33 12.97 2.66 15.94 3 19 C0.65117776 16.65117776 -0.03503024 14.72876333 -1.1875 11.625 C-1.55230469 10.66851562 -1.91710937 9.71203125 -2.29296875 8.7265625 C-3.01370542 5.94714704 -2.98549829 4.64891897 -2 2 C-1.34 2 -0.68 2 0 2 C0 1.34 0 0.68 0 0 Z " fill="#6E015C" transform="translate(293,141)"/>
<path d="M0 0 C2.82321865 2.82321865 3.77294537 6.25978203 5.125 9.9375 C5.40214844 10.66646484 5.67929687 11.39542969 5.96484375 12.14648438 C7.10821193 15.21893433 8 17.69539373 8 21 C7.34 21 6.68 21 6 21 C5.81824219 20.34773438 5.63648438 19.69546875 5.44921875 19.0234375 C4.30482287 15.04446106 3.19776633 11.38820799 1.3125 7.6875 C-0.0753328 4.84574713 -0.2749245 3.11581103 0 0 Z " fill="#E14A7C" transform="translate(299,171)"/>
<path d="M0 0 C2.71472902 2.71472902 3.14258516 5.30652069 4 9 C3.67 9.66 3.34 10.32 3 11 C-0.3 11 -3.6 11 -7 11 C-5.68 10.34 -4.36 9.68 -3 9 C-0.23776722 6.23776722 -0.42143709 3.79293383 0 0 Z " fill="#780554" transform="translate(252,166)"/>
<path d="M0 0 C0.99 0 1.98 0 3 0 C4.1721449 2.95619219 5.33677476 5.91528789 6.5 8.875 C6.83386719 9.71675781 7.16773438 10.55851562 7.51171875 11.42578125 C7.98544922 12.63427734 7.98544922 12.63427734 8.46875 13.8671875 C8.76201172 14.61081543 9.05527344 15.35444336 9.35742188 16.12060547 C10 18 10 18 10 20 C9.34 20 8.68 20 8 20 C5 13.5 5 13.5 5 9 C4.01 9 3.02 9 2 9 C1.855625 7.88625 1.71125 6.7725 1.5625 5.625 C1.21627965 2.17857953 1.21627965 2.17857953 0 0 Z " fill="#840753" transform="translate(218,86)"/>
<path d="M0 0 C0.66 5.61 1.32 11.22 2 17 C0.2133211 14.31998165 -0.9322137 11.96871256 -2.125 9 C-2.65480469 7.700625 -2.65480469 7.700625 -3.1953125 6.375 C-4 4 -4 4 -4 1 C-2 0 -2 0 0 0 Z " fill="#7C044E" transform="translate(276,96)"/>
<path d="M0 0 C4.0402821 2.02014105 5.24371211 7.93921553 6.73828125 12.01171875 C7.83194874 15.4415195 8.02833781 17.58946958 7 21 C5.82504857 18.06574629 4.66149148 15.12710487 3.5 12.1875 C3.16613281 11.35412109 2.83226562 10.52074219 2.48828125 9.66210938 C2.17246094 8.85966797 1.85664063 8.05722656 1.53125 7.23046875 C1.23798828 6.49207764 0.94472656 5.75368652 0.64257812 4.99291992 C0 3 0 3 0 0 Z " fill="#7C044D" transform="translate(296,160)"/>
<path d="M0 0 C3.63 0 7.26 0 11 0 C15 6.625 15 6.625 15 10 C14.01 9.67 13.02 9.34 12 9 C12 7.68 12 6.36 12 5 C11.34 5 10.68 5 10 5 C9.67 4.01 9.34 3.02 9 2 C6.03 1.67 3.06 1.34 0 1 C0 0.67 0 0.34 0 0 Z " fill="#EC507E" transform="translate(256,87)"/>
<path d="M0 0 C0.33 0 0.66 0 1 0 C0.67 3.96 0.34 7.92 0 12 C-1.32 12.33 -2.64 12.66 -4 13 C-3.40895235 8.15340923 -2.02055843 4.39251833 0 0 Z " fill="#7F0651" transform="translate(309,203)"/>
<path d="M0 0 C2.74605463 4.11908194 3.2917625 6.04003743 3 11 C2 13.875 2 13.875 1 16 C0.855625 15.360625 0.71125 14.72125 0.5625 14.0625 C0.18992819 12.02454854 0.18992819 12.02454854 -1 11 C-1.125 8 -1.125 8 -1 5 C-0.67 4.67 -0.34 4.34 0 4 C0 2.68 0 1.36 0 0 Z " fill="#ED4B73" transform="translate(307,192)"/>
<path d="M0 0 C1 2 1 2 -0.21484375 5.6953125 C-0.78133585 7.17485658 -1.35591889 8.65132181 -1.9375 10.125 C-2.22818359 10.87910156 -2.51886719 11.63320313 -2.81835938 12.41015625 C-3.53874998 14.27608602 -4.26850404 16.1383958 -5 18 C-5.33 18 -5.66 18 -6 18 C-6.57082036 12.29179642 -4.67524392 8.82324999 -2 4 C-1.3277759 2.66945989 -0.65952711 1.33687928 0 0 Z " fill="#E95181" transform="translate(277,284)"/>
<path d="M0 0 C-0.66 2.97 -1.32 5.94 -2 9 C-2.66 9 -3.32 9 -4 9 C-4.33 9.99 -4.66 10.98 -5 12 C-5.36666667 4.66666667 -5.36666667 4.66666667 -3.625 1.5 C-2 0 -2 0 0 0 Z " fill="#7B0456" transform="translate(223,305)"/>
<path d="M0 0 C1.65 0 3.3 0 5 0 C4.67 2.97 4.34 5.94 4 9 C1.18167487 7.59083743 0.97406539 5.92219617 0 3 C0 2.01 0 1.02 0 0 Z " fill="#7A0555" transform="translate(250,223)"/>
<path d="M0 0 C1.13643966 3.40931897 0.86747764 4.00335456 -0.4375 7.1875 C-0.72496094 7.90292969 -1.01242188 8.61835938 -1.30859375 9.35546875 C-1.53675781 9.89816406 -1.76492187 10.44085938 -2 11 C-2.33 11 -2.66 11 -3 11 C-3.66 7.7 -4.32 4.4 -5 1 C-3.35 0.67 -1.7 0.34 0 0 Z " fill="#770556" transform="translate(229,288)"/>
<path d="M0 0 C2.54384726 1.27192363 2.69368156 2.19948469 3.6875 4.8125 C3.95949219 5.49957031 4.23148437 6.18664062 4.51171875 6.89453125 C5.06812731 9.29376496 4.77364938 10.6894364 4 13 C1.47519307 10.47519307 1.44261367 8.86176966 0.875 5.375 C0.70742188 4.37210937 0.53984375 3.36921875 0.3671875 2.3359375 C0.24601562 1.56507812 0.12484375 0.79421875 0 0 Z " fill="#ED5180" transform="translate(271,99)"/>
<path d="M0 0 C2.475 0.495 2.475 0.495 5 1 C5.66 2.98 6.32 4.96 7 7 C4.525 6.01 4.525 6.01 2 5 C2 4.01 2 3.02 2 2 C1.34 2 0.68 2 0 2 C0 1.34 0 0.68 0 0 Z " fill="#740659" transform="translate(224,106)"/>
<path d="M0 0 C1.953125 1.17578125 1.953125 1.17578125 4 3 C4.609375 5.48046875 4.609375 5.48046875 4.75 8.1875 C4.80671875 9.08855469 4.8634375 9.98960937 4.921875 10.91796875 C4.94765625 11.60503906 4.9734375 12.29210937 5 13 C3.09610151 10.14415227 2.30537823 8.0688238 1.375 4.8125 C0.98441406 3.46091797 0.98441406 3.46091797 0.5859375 2.08203125 C0.39257812 1.39496094 0.19921875 0.70789063 0 0 Z " fill="#83054D" transform="translate(304,182)"/>
<path d="M0 0 C0.66 0 1.32 0 2 0 C3.42258812 3.82320557 4.24042276 6.91281305 4 11 C0 5 0 5 0 0 Z " fill="#7F054D" transform="translate(268,86)"/>
<path d="M0 0 C0.33 0 0.66 0 1 0 C1.17942163 3.94727588 1.09350689 6.5980513 -1 10 C-1.66 10 -2.32 10 -3 10 C-2.39009109 6.44219804 -1.4216319 3.3171411 0 0 Z " fill="#85074E" transform="translate(301,224)"/>
<path d="M0 0 C0.66 0 1.32 0 2 0 C2 0.66 2 1.32 2 2 C2.66 2 3.32 2 4 2 C4.33 4.97 4.66 7.94 5 11 C2.77174356 8.77174356 2.30760631 7.34238372 1.375 4.375 C1.11460937 3.55773437 0.85421875 2.74046875 0.5859375 1.8984375 C0.39257812 1.27195313 0.19921875 0.64546875 0 0 Z " fill="#810650" transform="translate(291,149)"/>
<path d="M0 0 C2.95183101 2.95183101 3.08663988 5.95511947 4 10 C2.68 9.34 1.36 8.68 0 8 C0 5.36 0 2.72 0 0 Z " fill="#880B4E" transform="translate(236,126)"/>
</svg>
