<?xml version="1.0" encoding="UTF-8"?>
<svg version="1.1" xmlns="http://www.w3.org/2000/svg" width="200" height="200">
<path d="M0 0 C66 0 132 0 200 0 C200 66 200 132 200 200 C134 200 68 200 0 200 C0 134 0 68 0 0 Z " fill="#DCDCD0" transform="translate(0,0)"/>
<path d="M0 0 C11.41192264 8.92426267 18.67079809 19.5145824 21 34 C22.04007748 48.90111003 18.5823834 61.84562583 9.3125 73.6875 C0.1950574 83.56472948 -11.71596498 89.47756822 -25.1171875 90.30859375 C-37.5408484 90.76126716 -47.44153293 89.03897805 -58 82 C-60.12448513 81.71476677 -60.12448513 81.71476677 -62.46484375 81.76171875 C-63.34188965 81.74915039 -64.21893555 81.73658203 -65.12255859 81.72363281 C-66.51595459 81.70574707 -66.51595459 81.70574707 -67.9375 81.6875 C-78.32865074 81.37277738 -86.49469267 79.59084057 -94.875 73.125 C-97.76097347 70.66101433 -97.76097347 70.66101433 -100.78125 71.33984375 C-101.8434375 71.55769531 -102.905625 71.77554688 -104 72 C-114.04047906 72.96028795 -121.65193308 71.89559574 -130 66 C-137.41198918 59.39027782 -141.32108632 52.34562344 -142.23828125 42.421875 C-142.49867283 33.04777797 -139.6001996 26.2017852 -133.84375 18.859375 C-129.56825185 14.54764382 -123.98775326 11.17595839 -118 10 C-116.46665033 9.998304 -114.93264899 10.05184587 -113.40234375 10.1484375 C-100.0536424 10.95049091 -100.0536424 10.95049091 -88.546875 4.82421875 C-81.98502494 0.12424332 -75.37073484 -0.28685801 -67.5625 0.1875 C-60.46135273 0.41533332 -56.2923024 -0.16061928 -50.44140625 -4.46484375 C-35.59590847 -13.79969276 -13.58935208 -9.53681316 0 0 Z " fill="#DADBCE" transform="translate(160,59)"/>
<path d="M0 0 C10.08354019 8.62802918 16.31016465 18.76609391 18.4375 31.99609375 C19.47757748 46.89720378 16.0198834 59.84171958 6.75 71.68359375 C-2.3674426 81.56082323 -14.27846498 87.47366197 -27.6796875 88.3046875 C-39.20121279 88.72696141 -50.99162315 88.00253547 -59.97265625 79.79296875 C-60.49730469 79.2 -61.02195312 78.60703125 -61.5625 77.99609375 C-60.70527344 77.56039062 -59.84804687 77.1246875 -58.96484375 76.67578125 C-47.33580597 70.61871761 -39.135978 64.93734834 -34.5234375 52.10546875 C-31.11104694 39.92291553 -31.5066936 29.27291081 -37.5625 17.99609375 C-43.73095412 9.19268973 -51.62028935 3.80374889 -61.5625 -0.00390625 C-46.38871893 -17.62507137 -16.50948502 -12.91061862 0 0 Z " fill="#1E2A16" transform="translate(162.5625,61.00390625)"/>
<path d="M0 0 C1.3096875 -0.00257812 2.619375 -0.00515625 3.96875 -0.0078125 C6.72235924 0.09575245 8.90352847 0.29041986 11.5 1.125 C10.20405264 5.01284209 8.35097457 7.83397522 5.81640625 10.98828125 C1.95558262 17.25495937 0.94346319 23.1595809 1 30.375 C1.00427002 31.20475342 1.00854004 32.03450684 1.01293945 32.8894043 C1.28613298 42.82573273 4.54941073 50.97582246 11.5 58.125 C17.38153748 57.29790879 20.62026677 54.49067962 24.5 50.125 C27.04951136 45.9843931 28.9642436 41.73226919 30.5 37.125 C31.16 37.125 31.82 37.125 32.5 37.125 C32.64695312 37.86363281 32.79390625 38.60226563 32.9453125 39.36328125 C35.72933589 51.95538705 41.44512279 61.15025445 50.5 70.125 C44.5181855 73.11590725 34.25100479 71.85516757 27.953125 70.18359375 C23.41644636 68.34704491 19.48959061 66.24925836 15.625 63.25 C12.73902653 60.78601433 12.73902653 60.78601433 9.71875 61.46484375 C8.6565625 61.68269531 7.594375 61.90054688 6.5 62.125 C-3.54047906 63.08528795 -11.15193308 62.02059574 -19.5 56.125 C-26.91198918 49.51527782 -30.82108632 42.47062344 -31.73828125 32.546875 C-31.99867283 23.17277797 -29.1001996 16.3267852 -23.34375 8.984375 C-16.53027987 2.1131636 -9.38030605 -0.01846517 0 0 Z " fill="#202B17" transform="translate(49.5,68.875)"/>
<path d="M0 0 C1.10601562 -0.00515625 2.21203125 -0.0103125 3.3515625 -0.015625 C6.25566911 0.23951615 7.91984843 0.74098001 10.375 2.25 C9.61316406 2.94222656 9.61316406 2.94222656 8.8359375 3.6484375 C-0.27333967 12.28007467 -4.41360533 21.19782472 -7.625 33.25 C-8.285 33.25 -8.945 33.25 -9.625 33.25 C-10.15287109 32.05503906 -10.15287109 32.05503906 -10.69140625 30.8359375 C-14.84840946 21.9141186 -19.00486832 16.95189 -27.625 12.25 C-20.85319557 4.34956149 -10.32397952 -0.04835588 0 0 Z " fill="#1F2917" transform="translate(89.625,58.75)"/>
<path d="M0 0 C2.08304538 -0.05418326 4.16649768 -0.09287551 6.25 -0.125 C7.99023438 -0.15980469 7.99023438 -0.15980469 9.765625 -0.1953125 C13 0 13 0 17 2 C14.69 4.31 12.38 6.62 10 9 C8.68 8.34 7.36 7.68 6 7 C5.25 4.375 5.25 4.375 5 2 C3.35 1.67 1.7 1.34 0 1 C0 0.67 0 0.34 0 0 Z " fill="#313A28" transform="translate(83,59)"/>
<path d="M0 0 C2 1 2 1 2.9375 3.375 C3.98373709 5.95982105 4.92113535 7.2046169 7 9 C6.67 9.99 6.34 10.98 6 12 C2.37 9.69 -1.26 7.38 -5 5 C-3.35 3.35 -1.7 1.7 0 0 Z " fill="#283120" transform="translate(67,66)"/>
<path d="M0 0 C0.9075 0.185625 1.815 0.37125 2.75 0.5625 C5.68314324 0.95734621 7.2644657 0.94691572 10 0 C10.12375 0.598125 10.2475 1.19625 10.375 1.8125 C10.95475985 4.26231348 10.95475985 4.26231348 13 7 C12.34 7.66 11.68 8.32 11 9 C10.54109375 8.65066406 10.0821875 8.30132812 9.609375 7.94140625 C8.68898438 7.25884766 8.68898438 7.25884766 7.75 6.5625 C7.14671875 6.11003906 6.5434375 5.65757812 5.921875 5.19140625 C3.93707244 3.96099003 2.28012345 3.43887332 0 3 C0 2.01 0 1.02 0 0 Z " fill="#303927" transform="translate(58,126)"/>
<path d="M0 0 C0.66 0.33 1.32 0.66 2 1 C1.01 1.33 0.02 1.66 -1 2 C-1.33 3.98 -1.66 5.96 -2 8 C-4.475 7.01 -4.475 7.01 -7 6 C-7 5.01 -7 4.02 -7 3 C-4.69631264 1.93347808 -2.35981813 0.93578995 0 0 Z " fill="#383E2D" transform="translate(109,135)"/>
<path d="M0 0 C0.66 0.33 1.32 0.66 2 1 C1.34 2.32 0.68 3.64 0 5 C0.66 5 1.32 5 2 5 C2 5.66 2 6.32 2 7 C-0.31 6.34 -2.62 5.68 -5 5 C-3.35 3.35 -1.7 1.7 0 0 Z " fill="#383C2D" transform="translate(106,56)"/>
<path d="M0 0 C0 0.66 0 1.32 0 2 C1.32 2.33 2.64 2.66 4 3 C1.03 3.66 -1.94 4.32 -5 5 C-5.33 4.34 -5.66 3.68 -6 3 C-5.34 3 -4.68 3 -4 3 C-4 2.34 -4 1.68 -4 1 C-2 0 -2 0 0 0 Z " fill="#CED1C4" transform="translate(77,58)"/>
<path d="M0 0 C0.99 0 1.98 0 3 0 C1.61918777 4.1424367 -0.59825558 5.32203099 -4 8 C-2.87548273 5.0280615 -1.77706209 2.66559313 0 0 Z " fill="#323A28" transform="translate(24,81)"/>
</svg>
