<svg height="39" viewBox="0 0 87 39" width="87" xmlns="http://www.w3.org/2000/svg"><g fill="none" fill-rule="evenodd" transform="translate(.07 .094673)"><g fill="#212121"><path d="m0 30.6647613h5.90271284v-30.62308781h-5.90271284z"/><path d="m13.6754242 16.9941444c.262487-2.2836367 1.4130058-4.9203037 5.3225871-4.9203037 1.803492 0 4.8412627.6441254 5.0922474 4.9203037zm5.343822-9.29616808c-6.9143199 0-11.38161239 4.68023138-11.38161239 11.92221768 0 5.3550293 2.96256369 11.6078231 11.31230409 11.6078231 7.3752943 0 9.9482565-4.4956057 10.8256709-7.1753323l.0637047-.1952432h-5.9083165l-.0409952.0811056c-.7051757 1.3720106-1.7754737 2.6419757-4.8043965 2.6419757-3.1931984 0-5.3488358-2.2346785-5.5266781-5.7083545h16.4632424l.0106174-.1365522c.0498431-.6172868.0498431-1.0520125.0498431-1.6533731 0-3.0168307-.8839028-5.7679302-2.4886126-7.7466101-1.9580349-2.41340561-4.8430322-3.63765668-8.5747713-3.63765668z"/><path d="m46.3649039 20.4814462v.4524214c0 4.0210646-1.7790129 5.8941598-5.5986408 5.8941598-2.3600234 0-3.8261164-1.1829609-3.8261164-3.0870238 0-2.2626968 1.7442112-3.2716495 5.6552672-3.2716495 1.724451 0 3.1135675 0 3.76949.0120921zm5.772944-4.8922855c0-5.297813-3.2386175-7.8790333-9.9016577-7.8911254h-.0407003c-8.1359167 0-9.7232256 4.4640482-9.9438326 7.1281436l-.0132718.1607364h5.7797274l.024774-.1176767c.3070213-1.4528212.8797738-2.8711357 4.1440501-2.8711357 3.7388173 0 4.1714785 2.0187903 4.1714785 3.5370858v1.0449341h-4.0543916c-7.4328055 0-11.2017057 2.5136815-11.2017057 7.4708514 0 3.3105802 2.1467896 7.1771019 8.1969671 7.1771019 3.4465425 0 5.8599481-.9602895 7.1835903-2.8557994.0463039.8154792.1023404 2.2924846.1023404 2.2924846h5.5526319z"/><path d="m71.4229138 19.2354883c0 4.5628495-2.0606703 7.1794613-5.6537926 7.1794613-3.6662648 0-5.5252035-2.3287609-5.5252035-6.9211033 0-4.7055953 1.8639525-6.9930661 5.6983269-6.9930661 3.3804784 0 5.4806692 2.5806305 5.4806692 6.7347081m-3.7391123-11.53733502c-4.0104471 0-6.1469142 1.72740027-7.2664654 3.33800862-.0179907-1.0098376-.1816764-2.7749888-.1816764-2.7749888h-5.7033407v30.5809129h5.889441v-10.2868352c1.3740751 1.773999 3.5388554 2.6726483 6.4424333 2.6726483 6.2415865 0 10.6009348-5.0368007 10.6009348-12.2484093 0-6.5368106-4.1136723-11.28133652-9.7813266-11.28133652"/></g><path d="m83.7006391 0-1.1947582 4.53896026c-.4550757-1.73123436-.8724005-3.29583372-.9431835-3.5533069-.1822663-.66536026-.6252499-.98476857-1.2782231-.98476857-.7072402 0-1.2183525-.00088479-1.2183525-.00088479h-.0058986l-1.195643 4.54249941-1.195348-4.54249941-2.6817911.31174016s1.4731713 5.60748871 1.7421467 6.62499442c.1722387.65120366.5176008 1.09182787 1.1755878 1.2699651.6806966.1849206 2.082495.60224541 2.082495.60224541l1.1977075-4.55518136c.3630578 1.38056354.6405862 2.39511996.74971 2.79415916.1625059.59546203.553877.9750359 1.2348685 1.17529282.9210638.270745 1.9772053.58572938 1.9772053.58572938l2.2391024-8.51372097z" fill="#ff2b4c"/></g></svg>