<?xml version="1.0" encoding="UTF-8"?>
<svg version="1.1" xmlns="http://www.w3.org/2000/svg" width="2243" height="1372">
<path d="M0 0 C0.66 0 1.32 0 2 0 C2.32049316 0.57105469 2.64098633 1.14210937 2.97119141 1.73046875 C9.73332626 13.76692528 16.57642234 25.74993062 23.55517578 37.66210938 C28.08915937 45.41186973 32.55555697 53.19873011 37 61 C41.95363499 69.6941016 46.94369338 78.36502888 52 87 C57.05630923 95.63497557 62.04607122 104.30606319 67 113 C72.53985933 122.72124506 78.13374932 132.40894868 83.78344727 142.06689453 C89.93766742 152.59084625 96.02369996 163.15380137 102.10888672 173.71777344 C105.23680148 179.14659942 108.36858448 184.57319281 111.5 190 C112.75001879 192.16665583 114.00001878 194.3333225 115.25 196.5 C115.86875 197.5725 116.4875 198.645 117.125 199.75 C242.75 417.5 242.75 417.5 244.62695312 420.75341797 C245.8704051 422.90871311 247.11389436 425.06398673 248.35742188 427.21923828 C251.24462875 432.22337674 254.1315043 437.2277052 257.01696777 442.23284912 C258.02619104 443.98341241 259.03553836 445.73390411 260.04492188 447.484375 C261.3016766 449.66392165 262.55820586 451.84359832 263.81445312 454.0234375 C264.67973633 455.52390625 264.67973633 455.52390625 265.5625 457.0546875 C266.12195312 458.0250293 266.68140625 458.99537109 267.2578125 459.99511719 C269.7214031 464.2442586 272.21644012 468.47485922 274.71484375 472.70361328 C276 475 276 475 276 476 C275.16698364 476.01213028 275.16698364 476.01213028 274.31713867 476.02450562 C241.10898699 476.44387387 241.10898699 476.44387387 207.9375 477.9375 C206.74962891 478.01210449 205.56175781 478.08670898 204.33789062 478.16357422 C188.60655043 479.25689789 173.26586865 481.49174587 157.8125 484.5625 C156.49498245 484.82185837 156.49498245 484.82185837 155.15084839 485.0864563 C135.97409354 488.87205285 116.95956946 493.25177833 98 498 C97.289646 498.17726624 96.57929199 498.35453247 95.84741211 498.53717041 C40.10290775 512.4732965 -14.68435911 530.6116223 -68 552 C-68.99465271 552.39868286 -68.99465271 552.39868286 -70.00939941 552.80541992 C-89.85346191 560.77387451 -109.48258527 569.26483205 -129 578 C-130.14259277 578.51127441 -131.28518555 579.02254883 -132.46240234 579.54931641 C-150.09524683 587.49844363 -167.40677129 596.10187536 -184.71263885 604.7338295 C-186.46695141 605.60852212 -188.22190357 606.48193154 -189.97686768 607.35531616 C-205.16556091 614.92276667 -220.16352665 622.76372216 -235 631 C-236.233505 631.68073546 -237.46720391 632.36111976 -238.70117188 633.04101562 C-241.63918211 634.66431649 -244.57138852 636.29731396 -247.5 637.9375 C-249.05460937 638.80761719 -249.05460937 638.80761719 -250.640625 639.6953125 C-257.4815065 643.54122271 -264.2574139 647.48464906 -271 651.5 C-347.10672337 696.76937092 -428.84118077 731.66306998 -555 764 C-555.71681946 764.1579303 -556.43363892 764.3158606 -557.17218018 764.47857666 C-621.4778502 778.59750173 -687.32338817 785.24850273 -753.125 785.1875 C-754.34300293 785.18689575 -755.56100586 785.1862915 -756.81591797 785.18566895 C-808.34196161 785.11676589 -859.94818772 781.10530485 -910.5 770.8125 C-911.73580811 770.56258301 -912.97161621 770.31266602 -914.24487305 770.05517578 C-915.37062744 769.81653809 -916.49638184 769.57790039 -917.65625 769.33203125 C-919.13834961 769.01842651 -919.13834961 769.01842651 -920.65039062 768.69848633 C-923 768 -923 768 -925 766 C-915.85357803 766.62665662 -906.71776648 767.34293643 -897.58178711 768.10400391 C-876.31243055 769.89197127 -876.31243055 769.89197127 -855 771 C-853.85128418 771.04366699 -852.70256836 771.08733398 -851.51904297 771.13232422 C-824.34809916 772.13515388 -797.18612509 772.10986683 -770 772 C-769.72994141 771.28932373 -769.45988281 770.57864746 -769.18164062 769.84643555 C-767.97431967 766.93813907 -766.59021571 764.22713987 -765.09375 761.45703125 C-764.52019775 760.39299072 -763.94664551 759.3289502 -763.35571289 758.23266602 C-762.74332764 757.10401123 -762.13094238 755.97535645 -761.5 754.8125 C-760.85984931 753.62887644 -760.21979488 752.4452008 -759.57983398 751.26147461 C-754.91452372 742.64248157 -750.18424901 734.06143947 -745.40039062 725.5078125 C-742.52836618 720.36460554 -739.67219013 715.21257151 -736.8125 710.0625 C-735.51698263 707.73043786 -734.2214159 705.39840322 -732.92578125 703.06640625 C-732.26903951 701.88427926 -731.61230123 700.70215036 -730.95556641 699.52001953 C-725.23046875 689.21484375 -725.23046875 689.21484375 -723.36425781 685.85571289 C-722.11745779 683.61144019 -720.87071334 681.36713661 -719.62402344 679.12280273 C-716.51236459 673.52125046 -713.39976855 667.92022318 -710.28515625 662.3203125 C-703.83696065 650.72439772 -697.40503035 639.11979675 -691 627.5 C-683.98055206 614.76554692 -676.92675275 602.05042839 -669.85888672 589.34277344 C-666.73741652 583.72953862 -663.61882869 578.11470279 -660.5 572.5 C-656.76312563 565.77265426 -653.0257015 559.04561801 -649.28515625 552.3203125 C-642.83696065 540.72439772 -636.40503035 529.11979675 -630 517.5 C-622.98055206 504.76554692 -615.92675275 492.05042839 -608.85888672 479.34277344 C-605.73741652 473.72953862 -602.61882869 468.11470279 -599.5 462.5 C-595.76312563 455.77265426 -592.0257015 449.04561801 -588.28515625 442.3203125 C-581.83696065 430.72439772 -575.40503035 419.11979675 -569 407.5 C-560.75119352 392.53528483 -552.45176809 377.59891324 -544.14550781 362.66601562 C-537.07621184 349.95541403 -530.02102655 337.23731694 -523 324.5 C-515.98055206 311.76554692 -508.92675275 299.05042839 -501.85888672 286.34277344 C-498.73741652 280.72953862 -495.61882869 275.11470279 -492.5 269.5 C-488.76312563 262.77265426 -485.0257015 256.04561801 -481.28515625 249.3203125 C-474.05379306 236.31600433 -466.84760479 223.29822818 -459.66430664 210.26733398 C-454.46336279 200.83345692 -449.24123583 191.41154607 -444 182 C-439.8698269 185.78114439 -437.22353869 189.63328354 -434.5 194.5 C-433.61938612 196.03381648 -432.73646682 197.56631105 -431.8515625 199.09765625 C-431.15595215 200.30252686 -431.15595215 200.30252686 -430.44628906 201.53173828 C-427.99640895 205.71274569 -425.43634273 209.82414893 -422.875 213.9375 C-421.76690453 215.72003806 -420.65883229 217.50259057 -419.55078125 219.28515625 C-418.97666504 220.20828613 -418.40254883 221.13141602 -417.81103516 222.08251953 C-414.54833678 227.33855157 -411.30499194 232.60648601 -408.0625 237.875 C-407.38840088 238.97021973 -406.71430176 240.06543945 -406.01977539 241.19384766 C-401.59636686 248.38739124 -397.19709862 255.59524816 -392.8125 262.8125 C-387.92382433 270.85914618 -382.99472322 278.87931199 -378.03222656 286.88061523 C-368.56134372 302.15177236 -359.14252086 317.45485474 -349.8125 332.8125 C-344.92382433 340.85914618 -339.99472322 348.87931199 -335.03222656 356.88061523 C-325.56134372 372.15177236 -316.14252086 387.45485474 -306.8125 402.8125 C-301.9296306 410.84958921 -297.00672163 418.86044352 -292.04980469 426.85205078 C-287.89353392 433.55331188 -283.74992632 440.26228906 -279.61566162 446.97714233 C-278.59592508 448.63321694 -277.57556104 450.2889051 -276.55517578 451.94458008 C-272.66105913 458.27140915 -268.80583291 464.61965917 -265 471 C-256.83492774 456.78479507 -248.78104438 442.51002864 -240.78662109 428.19824219 C-232.85495333 413.99971149 -224.90320731 399.81304589 -216.89208984 385.65917969 C-211.15088304 375.51007325 -205.4578339 365.33414242 -199.76611328 355.15722656 C-196.26405868 348.89671092 -192.75786247 342.63851388 -189.25244141 336.37988281 C-186.32187215 331.14724952 -183.39230956 325.91405778 -180.46484375 320.6796875 C-174.2994112 309.65829479 -168.1126603 298.64954681 -161.89208984 287.65917969 C-155.55715696 276.46050486 -149.2798583 265.22961975 -143 254 C-135.65789261 240.8708703 -128.30171411 227.75034094 -120.89208984 214.65917969 C-115.15088304 204.51007325 -109.4578339 194.33414242 -103.76611328 184.15722656 C-100.26405868 177.89671092 -96.75786247 171.63851388 -93.25244141 165.37988281 C-90.32187215 160.14724952 -87.39230956 154.91405778 -84.46484375 149.6796875 C-78.2994112 138.65829479 -72.1126603 127.64954681 -65.89208984 116.65917969 C-59.55715696 105.46050486 -53.2798583 94.22961975 -47 83 C-39.66397592 69.88174845 -32.31695644 56.77031256 -24.90966797 43.69213867 C-22.0206828 38.58773624 -19.14477542 33.47638905 -16.28515625 28.35546875 C-15.66382813 27.24300781 -15.0425 26.13054688 -14.40234375 24.984375 C-13.21473272 22.85625673 -12.02843839 20.72740288 -10.84375 18.59765625 C-9.24069865 15.72504887 -7.62538755 12.86002334 -6 10 C-5.44812012 9.02627441 -4.89624023 8.05254883 -4.32763672 7.04931641 C-3.79541504 6.1319873 -3.26319336 5.2146582 -2.71484375 4.26953125 C-2.0031604 3.03553589 -2.0031604 3.03553589 -1.27709961 1.77661133 C-0.85565674 1.19032959 -0.43421387 0.60404785 0 0 Z " fill="#64C6BC" transform="translate(1299,0)"/>
<path d="M0 0 C0.92387512 -0.00099701 1.84775024 -0.00199402 2.79962158 -0.00302124 C12.26062195 -0.0018596 21.65781234 0.01444509 31.0625 1.1875 C28.16466521 3.11938986 27.05158989 3.52725926 23.7565918 3.99365234 C22.88685226 4.12073578 22.01711273 4.24781921 21.12101746 4.37875366 C19.7056646 4.57412216 19.7056646 4.57412216 18.26171875 4.7734375 C16.78153008 4.98802109 16.78153008 4.98802109 15.2714386 5.2069397 C12.09861269 5.66600224 8.92447056 6.11496355 5.75 6.5625 C1.62814264 7.14842654 -2.49290143 7.73970999 -6.61328125 8.3359375 C-7.63245636 8.48270935 -8.65163147 8.6294812 -9.70169067 8.78070068 C-17.78856562 9.96703266 -25.82225283 11.38082569 -33.84358215 12.94955444 C-38.28043529 13.79833915 -42.3933605 14.39863902 -46.9375 14.1875 C-37.26786312 31.14053526 -27.56097979 48.07114902 -17.79638672 64.96972656 C-14.67425395 70.37420645 -11.55608796 75.78097412 -8.4375 81.1875 C-7.18751878 83.3541775 -5.93751879 85.52084417 -4.6875 87.6875 C62.8125 204.6875 62.8125 204.6875 64.68774414 207.93798828 C65.93685518 210.10307071 67.18604129 212.26810982 68.43530273 214.43310547 C71.57452309 219.87365706 74.71240563 225.31497216 77.84765625 230.7578125 C83.86997329 241.20956199 89.90919337 251.65049548 96 262.0625 C101.42208699 271.33313931 106.76574012 280.64686699 112.08273315 289.97796631 C116.69734029 298.07457843 121.35334886 306.14538801 126.0625 314.1875 C131.46196042 323.40849633 136.78109585 332.67327552 142.07092285 341.95736694 C148.03642553 352.42455092 154.08449854 362.84145199 160.171875 373.23828125 C160.66880859 374.08986816 161.16574219 374.94145508 161.67773438 375.81884766 C162.55929236 377.32675944 163.44551176 378.83196275 164.33789062 380.33349609 C167.0625 384.96795644 167.0625 384.96795644 167.0625 387.1875 C166.26472027 387.18649636 165.46694054 387.18549271 164.64498566 387.18445866 C77.75474575 387.07557298 -9.13550544 386.98163201 -96.02581787 386.96539307 C-97.32454976 386.96514612 -98.62328165 386.96489917 -99.96136906 386.96464474 C-127.50141429 386.95949519 -155.04145909 386.95674892 -182.58150477 386.95688827 C-196.41712685 386.95695564 -210.25274889 386.95654855 -224.08837096 386.95569271 C-226.17533714 386.95556637 -228.26230333 386.95545358 -230.34926952 386.95534136 C-262.46073358 386.95349524 -294.57215423 386.94151419 -326.68359375 386.89996338 C-327.37327804 386.89907115 -328.06296234 386.89817893 -328.77354615 386.89725967 C-339.89229971 386.88281369 -351.0110521 386.86751203 -362.12980435 386.8520967 C-394.18083868 386.80767337 -426.23182397 386.76964584 -458.28289413 386.77336502 C-460.26212271 386.77359321 -460.26212271 386.77359321 -462.2813357 386.773826 C-475.45823754 386.77569944 -488.63513708 386.779967 -501.81203704 386.78725622 C-508.29627882 386.79082487 -514.78052074 386.79394468 -521.26476288 386.79679108 C-523.17897768 386.79765219 -523.17897768 386.79765219 -525.13186348 386.7985307 C-545.64228267 386.80660459 -566.15243478 386.77334342 -586.66278863 386.72447294 C-607.30208669 386.67618284 -627.94102933 386.67180098 -648.58034852 386.71165326 C-660.83023062 386.73398797 -673.07901814 386.72324244 -685.32878348 386.6640914 C-693.52995171 386.6278196 -701.73033871 386.63574691 -709.9314738 386.67833779 C-714.5932408 386.70131994 -719.25290246 386.70630098 -723.91451266 386.65694699 C-745.83067716 386.43975273 -762.28146448 388.42694359 -781.94622347 398.69688347 C-786.86699502 401.14900829 -791.98269757 403.06823953 -797.125 405 C-798.48989914 405.52740806 -798.48989914 405.52740806 -799.88237201 406.06547083 C-805.43749675 408.17472351 -810.13635822 408.69560835 -815.9375 407.1875 C-821.03209883 404.45151174 -824.1042679 401.6871963 -825.9375 396.1875 C-826.75509585 390.26577005 -825.88718941 386.10417308 -822.8125 381.01171875 C-817.93192692 376.26332786 -810.54899899 374.18343263 -804.31201172 371.73876953 C-786.72247062 364.82794438 -769.8246738 356.64848515 -752.9375 348.1875 C-751.79474609 347.61741211 -750.65199219 347.04732422 -749.47460938 346.45996094 C-719.34243374 331.35754741 -690.47582691 313.60737536 -662.9375 294.1875 C-662.36692871 293.78644043 -661.79635742 293.38538086 -661.20849609 292.97216797 C-638.98688807 277.3243191 -617.4773591 260.87207665 -596.76879883 243.26904297 C-593.39899905 240.40882267 -589.9971899 237.59490457 -586.5625 234.8125 C-580.85591329 230.16606293 -575.3108868 225.34359974 -569.76171875 220.51171875 C-565.59790078 216.88666115 -561.40548488 213.29565024 -557.20776367 209.70996094 C-554.19647445 207.1345329 -551.19809123 204.54594842 -548.21875 201.93359375 C-541.69961554 196.22355078 -535.12175058 190.65302911 -528.26855469 185.34692383 C-524.51975296 182.44322467 -520.83620574 179.47396915 -517.18017578 176.4543457 C-485.84343183 150.63474229 -450.73290189 129.18437935 -414.9375 110.1875 C-414.0285498 109.70216797 -413.11959961 109.21683594 -412.18310547 108.71679688 C-332.97560405 66.49134046 -247.24440292 35.55749118 -56.9375 2.1875 C-55.67115723 2.08453613 -54.40481445 1.98157227 -53.10009766 1.87548828 C-35.40041212 0.503302 -17.75195901 0.00510538 0 0 Z " fill="#1A4589" transform="translate(1721.9375,633.8125)"/>
<path d="M0 0 C18.15 0 36.3 0 55 0 C66.89538358 12.0305584 66.89538358 12.0305584 70.58203125 21.61425781 C72.81320332 26.94171894 76.11718122 31.35237953 79.5 36 C80.73797362 37.80174334 81.96971311 39.60778536 83.1953125 41.41796875 C83.81438477 42.32595215 84.43345703 43.23393555 85.07128906 44.16943359 C88.50917961 49.21486436 91.9421507 54.26363846 95.375 59.3125 C96.07238281 60.33794922 96.76976562 61.36339844 97.48828125 62.41992188 C100.86368012 67.3839259 104.23748399 72.34899998 107.60708618 77.31694031 C109.18942398 79.64960992 110.77255953 81.98173754 112.35577393 84.31381226 C113.48195087 85.97340192 114.60695191 87.63378933 115.73193359 89.29418945 C116.40820801 90.29023193 117.08448242 91.28627441 117.78125 92.3125 C118.38001953 93.19550781 118.97878906 94.07851562 119.59570312 94.98828125 C120.84578106 96.90413763 120.84578106 96.90413763 122 98 C122.33 65.66 122.66 33.32 123 0 C140.82 0 158.64 0 177 0 C177 61.05 177 122.1 177 185 C158.85 185 140.7 185 122 185 C117.38 178.07 112.76 171.14 108 164 C105.5287013 160.34809983 103.05479739 156.69982663 100.5625 153.0625 C99.3033542 151.22007342 98.04424057 149.37762485 96.78515625 147.53515625 C96.16012207 146.62137207 95.53508789 145.70758789 94.89111328 144.76611328 C91.75610673 140.18056922 88.62845898 135.59001231 85.5 131 C84.26043165 129.18228145 83.02084828 127.36457314 81.78125 125.546875 C79.17538105 121.72511522 76.57149927 117.90201001 73.96875 114.078125 C73.30423828 113.10230469 72.63972656 112.12648438 71.95507812 111.12109375 C70.69804238 109.2750972 69.44149162 107.42877025 68.18554688 105.58203125 C64.17003465 99.68663118 60.09128916 93.8446988 56 88 C55.67 120.01 55.34 152.02 55 185 C36.85 185 18.7 185 0 185 C0 123.95 0 62.9 0 0 Z " fill="#1A4589" transform="translate(395,1184)"/>
<path d="M0 0 C18.15 0 36.3 0 55 0 C66.89538358 12.0305584 66.89538358 12.0305584 70.58203125 21.61425781 C72.81320332 26.94171894 76.11718122 31.35237953 79.5 36 C80.73797362 37.80174334 81.96971311 39.60778536 83.1953125 41.41796875 C83.81438477 42.32595215 84.43345703 43.23393555 85.07128906 44.16943359 C88.50917961 49.21486436 91.9421507 54.26363846 95.375 59.3125 C96.07238281 60.33794922 96.76976562 61.36339844 97.48828125 62.41992188 C100.86368012 67.3839259 104.23748399 72.34899998 107.60708618 77.31694031 C109.18942398 79.64960992 110.77255953 81.98173754 112.35577393 84.31381226 C113.48195087 85.97340192 114.60695191 87.63378933 115.73193359 89.29418945 C116.40820801 90.29023193 117.08448242 91.28627441 117.78125 92.3125 C118.38001953 93.19550781 118.97878906 94.07851562 119.59570312 94.98828125 C120.84578106 96.90413763 120.84578106 96.90413763 122 98 C122.33 65.66 122.66 33.32 123 0 C140.82 0 158.64 0 177 0 C177 61.05 177 122.1 177 185 C159.18 185 141.36 185 123 185 C115.18604651 174.95348837 115.18604651 174.95348837 112.5 170.8125 C108.70450029 165.04246287 104.83277529 159.3281565 100.9375 153.625 C100.29232422 152.67987549 99.64714844 151.73475098 98.98242188 150.76098633 C97.65106176 148.81091031 96.31951683 146.86096045 94.98779297 144.91113281 C91.82267732 140.27580501 88.66151914 135.63778114 85.5 131 C84.88761475 130.10200684 84.27522949 129.20401367 83.64428711 128.27880859 C80.41715068 123.54657735 77.19170809 118.81320312 73.96875 114.078125 C73.30423828 113.10230469 72.63972656 112.12648438 71.95507812 111.12109375 C70.69804238 109.2750972 69.44149162 107.42877025 68.18554688 105.58203125 C64.17003465 99.68663118 60.09128916 93.8446988 56 88 C55.67 120.01 55.34 152.02 55 185 C36.85 185 18.7 185 0 185 C0 123.95 0 62.9 0 0 Z " fill="#1A4589" transform="translate(1262,1184)"/>
<path d="M0 0 C19.14 -0.0825 38.28 -0.165 58 -0.25 C67.02214844 -0.30462402 67.02214844 -0.30462402 76.2265625 -0.36035156 C83.64453125 -0.37841797 83.64453125 -0.37841797 87.13134766 -0.3817749 C89.53567477 -0.38786553 91.93999066 -0.40182495 94.34423828 -0.42230225 C134.11011998 -0.7436832 134.11011998 -0.7436832 148.5 12.37890625 C159.3871907 24.14501078 162.96635774 35.75381456 162.3828125 51.4921875 C161.63281126 62.84597992 156.31350213 71.17162156 148.125 78.75 C144.35340984 81.93182413 140.49576718 83.99296108 136 86 C136.90621094 86.35191406 137.81242187 86.70382812 138.74609375 87.06640625 C150.96453702 92.01843141 161.55870045 98.29393807 167.28515625 110.80859375 C172.96214256 125.80479055 172.46228555 141.49165286 165.875 156.125 C160.44579957 166.22169214 151.6468399 175.0031348 140.91015625 179.2109375 C120.93157737 185.18878 99.48064597 185.44684617 78.80859375 185.29296875 C76.76892343 185.28853723 74.72924964 185.2854895 72.6895752 185.28381348 C65.27216349 185.2683242 57.85482564 185.22644363 50.4375 185.1875 C33.793125 185.125625 17.14875 185.06375 0 185 C0 123.95 0 62.9 0 0 Z M58 38 C58 49.22 58 60.44 58 72 C63.094375 72.061875 68.18875 72.12375 73.4375 72.1875 C75.82053345 72.22846802 75.82053345 72.22846802 78.25170898 72.27026367 C87.00540966 72.32162932 94.67633696 72.3117419 101.9375 66.75 C105.30656625 62.25791166 106.24487202 58.03787492 106 52.5 C105.21289935 47.3175171 103.06965907 44.22498413 99 41 C90.79818104 37.02166514 81.74368381 37.65391345 72.875 37.8125 C65.511875 37.9053125 65.511875 37.9053125 58 38 Z M58 108 C58 119.88 58 131.76 58 144 C63.24749445 144.06921463 68.49337804 144.12884268 73.7409668 144.16479492 C75.52259719 144.17979643 77.30419119 144.20020433 79.08569336 144.22631836 C81.66008535 144.26308509 84.2339853 144.27981285 86.80859375 144.29296875 C87.59334579 144.30845261 88.37809784 144.32393646 89.18663025 144.33988953 C96.09971277 144.34195036 102.35590927 143.06928839 107.875 138.75 C111.94059789 133.48863803 113.8177451 128.65878154 113 122 C111.55034444 117.64284318 109.76583318 114.67678281 106.3125 111.625 C99.57167601 108.31818069 92.66544438 107.70087463 85.24609375 107.8046875 C84.19814636 107.80770874 84.19814636 107.80770874 83.12902832 107.81079102 C80.56511698 107.82110969 78.00130058 107.8490299 75.4375 107.875 C69.683125 107.91625 63.92875 107.9575 58 108 Z " fill="#1A4589" transform="translate(1759,1184)"/>
<path d="M0 0 C18.5633736 15.96254058 27.86429316 38.03003778 29.80810547 62.25292969 C31.68040139 91.2640604 27.83046097 121.27190771 8.2578125 144.0078125 C-8.33088141 161.94609507 -30.62382579 170.51424172 -54.78466797 171.62597656 C-83.77425557 172.39539616 -111.47376131 169.27978524 -134.046875 149.5 C-134.73523437 148.90703125 -135.42359375 148.3140625 -136.1328125 147.703125 C-152.75987302 132.32473701 -160.71038805 108.63076804 -161.95703125 86.46484375 C-161.98667969 85.48644531 -162.01632813 84.50804687 -162.046875 83.5 C-162.08683594 82.36691406 -162.12679687 81.23382812 -162.16796875 80.06640625 C-162.68266977 51.45508503 -155.77388421 25.19481026 -135.921875 3.875 C-102.31167735 -28.29640494 -35.6408285 -29.24375672 0 0 Z M-95.046875 37.5 C-106.06636003 53.30854392 -105.89561041 76.10532016 -102.921875 94.4375 C-100.8417996 105.57096578 -96.28412543 115.54272427 -87.046875 122.5 C-76.85097516 128.26143928 -65.20648516 129.041587 -53.80078125 126.88671875 C-44.48459055 123.88703749 -38.14665235 118.16579159 -33.609375 109.5625 C-25.14891785 90.95884284 -25.20994252 64.66211228 -32.078125 45.64453125 C-35.77305301 37.39335755 -41.69305413 31.12957914 -49.89453125 27.2890625 C-66.75167992 21.10912778 -83.175271 23.67062271 -95.046875 37.5 Z " fill="#1A4589" transform="translate(2213.046875,1200.5)"/>
<path d="M0 0 C5.41260256 2.6570958 10.00931956 7.19384872 12 13 C12.59009069 16.93393795 12.90810224 19.43640142 10.890625 22.91015625 C2.76422595 32.70608778 -8.40891449 40.4090139 -18.4140625 48.19140625 C-20.82534852 50.07057815 -23.21375204 51.9740572 -25.5859375 53.90234375 C-35.12686022 61.65306383 -44.97841797 68.88489415 -55 76 C-56.42984422 77.02191618 -57.85953474 78.04404743 -59.2890625 79.06640625 C-112.88265007 117.27929185 -170.87495049 149.07294298 -233 171 C-233.95374512 171.34337402 -234.90749023 171.68674805 -235.89013672 172.04052734 C-274.5981597 185.93103096 -315.18841281 194.44449983 -356 199 C-357.02722168 199.11859375 -358.05444336 199.2371875 -359.11279297 199.359375 C-392.36265568 203.02411303 -427.78386121 202.94438656 -461 199 C-461.97280914 198.88688477 -461.97280914 198.88688477 -462.965271 198.77148438 C-513.76879013 192.83943905 -563.25514565 180.23581397 -610.6875 161.0625 C-611.37148865 160.78741608 -612.05547729 160.51233215 -612.76019287 160.22891235 C-614.70196006 159.4439796 -616.63888676 158.64830747 -618.57421875 157.84765625 C-619.67338623 157.39398682 -620.77255371 156.94031738 -621.9050293 156.47290039 C-627.38873306 153.86319898 -631.52481465 151.01971217 -635 146 C-636.68268168 140.95195496 -636.56212419 136.67916054 -634.4375 131.8125 C-632.10725592 127.61643111 -629.52645459 125.52603223 -625 124 C-618.87831958 123.30114969 -613.73588209 124.35787194 -608.046875 126.52734375 C-606.952967 126.92352654 -606.952967 126.92352654 -605.83695984 127.32771301 C-604.27895907 127.89296741 -602.72313825 128.46426169 -601.16940308 129.0411377 C-597.02750256 130.57566641 -592.86615418 132.05589933 -588.70703125 133.54296875 C-587.87401993 133.84200104 -587.04100861 134.14103333 -586.18275452 134.4491272 C-545.3550125 149.06617244 -502.18679078 159.5937851 -459 164 C-457.99855957 164.10296387 -456.99711914 164.20592773 -455.96533203 164.31201172 C-368.56926597 172.89035097 -269.8865686 156.86083925 -183 117 C-182.1455127 116.5973291 -181.29102539 116.1946582 -180.41064453 115.77978516 C-150.50749731 101.59488845 -122.80494972 83.21864753 -96.20068359 63.61962891 C-93.90584743 61.93070688 -91.60381232 60.25194543 -89.30078125 58.57421875 C-79.86749922 51.68454869 -70.58522106 44.62526427 -61.38671875 37.42578125 C-55.07945849 32.49045097 -48.7082137 27.63957627 -42.33789062 22.78613281 C-39.73615639 20.79842525 -37.14139709 18.80179867 -34.546875 16.8046875 C-32.67711803 15.36974645 -30.80732682 13.93485002 -28.9375 12.5 C-28.06891357 11.8292041 -27.20032715 11.1584082 -26.30541992 10.46728516 C-10.39274138 -1.71886075 -10.39274138 -1.71886075 0 0 Z " fill="#E5B980" transform="translate(1077,774)"/>
<path d="M0 0 C2.24192531 3.73654219 2.66861577 7.17463887 2.5 11.5 C0.85222584 17.57616722 -2.30828257 21.15196141 -7.5 24.5 C-10.82072933 25.69488291 -14.15486017 26.24259455 -17.63671875 26.7734375 C-18.61635086 26.9427478 -19.59598297 27.11205811 -20.6053009 27.28649902 C-22.70478018 27.64749275 -24.80600259 27.99846782 -26.90869141 28.340271 C-32.48300972 29.24936636 -38.04297678 30.24034519 -43.60546875 31.21875 C-44.71707367 31.41217987 -45.82867859 31.60560974 -46.97396851 31.80490112 C-62.27663104 34.4808499 -77.41168299 37.81188125 -92.5 41.5 C-93.645896 41.77979706 -93.645896 41.77979706 -94.81494141 42.06524658 C-158.31116123 57.65859178 -219.41266203 80.67910079 -278.5 108.5 C-279.510625 108.97373047 -280.52125 109.44746094 -281.5625 109.93554688 C-307.42065719 122.08154983 -332.79525814 135.14892759 -357.5 149.5 C-358.66428798 150.17367554 -359.82868058 150.84717027 -360.99316406 151.52050781 C-375.26334502 159.77818016 -389.42456992 168.16653535 -403.29492188 177.08496094 C-410.33416481 181.60217219 -417.41960941 186.04767709 -424.5 190.5 C-425.29535156 191.00080078 -426.09070312 191.50160156 -426.91015625 192.01757812 C-456.10498411 210.36392661 -486.04736949 227.28239448 -516.70458984 243.06054688 C-518.50611033 243.98821192 -520.30604431 244.91896771 -522.10400391 245.85351562 C-561.75995304 266.43223226 -603.75371743 282.87876991 -645.99462891 297.29589844 C-649.10322782 298.36370801 -652.19977618 299.45886025 -655.29296875 300.5703125 C-656.88262811 301.13073164 -658.47245187 301.69068486 -660.0625 302.25 C-660.71589355 302.49057129 -661.36928711 302.73114258 -662.04248047 302.97900391 C-667.99955263 305.02382713 -673.87680867 305.44038935 -679.8125 303.3125 C-683.7448173 300.66047205 -685.99898186 298.00305441 -687.5 293.5 C-688.02744167 287.27618832 -687.25515148 282.62163927 -683.5 277.5 C-679.27553134 273.51631738 -674.87895309 271.94539034 -669.484375 270.14453125 C-668.60501282 269.84181305 -667.72565063 269.53909485 -666.81964111 269.22720337 C-664.9403586 268.58151886 -663.0595055 267.94039059 -661.17724609 267.30343628 C-658.22026652 266.30243457 -655.2678468 265.288937 -652.31640625 264.27172852 C-648.43554367 262.93481483 -644.55345717 261.6015908 -640.66992188 260.27246094 C-591.86741756 243.55712891 -543.45156649 223.91272077 -498.5 198.5 C-497.48856934 197.92910645 -496.47713867 197.35821289 -495.43505859 196.77001953 C-480.02985152 188.04458989 -464.9096013 178.90240669 -449.86230469 169.57666016 C-417.60064447 149.6508918 -385.05433304 130.30246724 -351.3203125 112.9609375 C-348.86907208 111.69118138 -346.43084498 110.40198657 -344 109.09375 C-297.31744491 83.98508919 -248.28480229 62.63926006 -198.5 44.5 C-197.46706818 44.12228455 -197.46706818 44.12228455 -196.41326904 43.73693848 C-145.45739935 25.11736961 -93.06904668 10.35857139 -39.5 1.5 C-38.47108643 1.32887695 -38.47108643 1.32887695 -37.42138672 1.15429688 C-32.86935594 0.40118377 -28.31242323 -0.31206361 -23.75 -1 C-22.63141602 -1.17273438 -21.51283203 -1.34546875 -20.36035156 -1.5234375 C-5.93104339 -3.55862603 -5.93104339 -3.55862603 0 0 Z " fill="#64C6BC" transform="translate(1492.5,501.5)"/>
<path d="M0 0 C9.93376961 9.33286105 15.98335923 22.38422663 17.37768555 35.92944336 C17.46165085 36.73038925 17.54561615 37.53133514 17.63212585 38.35655212 C17.69293839 38.96205399 17.75375092 39.56755585 17.81640625 40.19140625 C10.78731803 40.62076191 3.75808988 41.04776757 -3.27124023 41.47314453 C-5.6622236 41.61811158 -8.05317449 41.76361535 -10.4440918 41.90966797 C-13.88191452 42.11957864 -17.31984964 42.32755507 -20.7578125 42.53515625 C-21.82569504 42.60077759 -22.89357758 42.66639893 -23.99382019 42.73400879 C-24.99448013 42.79407104 -25.99514008 42.8541333 -27.02612305 42.91601562 C-27.90326462 42.9693103 -28.78040619 43.02260498 -29.68412781 43.07751465 C-32.18775681 43.19159595 -34.67774545 43.21121214 -37.18359375 43.19140625 C-37.40273437 42.40636719 -37.621875 41.62132812 -37.84765625 40.8125 C-40.17879187 33.08942874 -42.24030149 26.87536558 -49.59375 22.8828125 C-57.65428188 19.53102298 -66.29073265 18.66952252 -74.68359375 21.37890625 C-78.38965417 23.29811611 -80.09660458 24.60178488 -82.18359375 28.19140625 C-83.27789695 31.69317649 -83.50301216 33.40225488 -82.12109375 36.81640625 C-77.42157336 42.57710866 -71.79654751 44.13347943 -64.82421875 45.77734375 C-63.92096863 46.00161041 -63.01771851 46.22587708 -62.08709717 46.4569397 C-59.20520595 47.17125912 -56.31988523 47.87009871 -53.43359375 48.56640625 C-31.83736981 53.81284201 -31.83736981 53.81284201 -21.2890625 57.30859375 C-20.58287781 57.54154144 -19.87669312 57.77448914 -19.14910889 58.01449585 C-4.24251152 63.11219181 9.86160638 71.3788984 17.60546875 85.61328125 C24.64206586 100.59442348 25.73980531 115.31427036 20.81640625 131.19140625 C13.88422685 149.12766319 2.13269614 161.03495789 -15.48046875 168.83984375 C-43.49895449 179.06599994 -80.27821193 178.89507075 -107.87890625 167.69140625 C-123.82238573 160.25341151 -133.62969606 148.53703561 -140.12109375 132.44140625 C-142.74878503 125.00232163 -144.30858813 118.08877825 -144.18359375 110.19140625 C-125.83485506 108.53452093 -107.62036308 106.97075343 -89.18359375 107.19140625 C-88.83748047 108.45984375 -88.83748047 108.45984375 -88.484375 109.75390625 C-85.65509447 119.59488202 -82.73157862 127.20781684 -74.18359375 133.19140625 C-65.42343527 137.49464199 -56.5418415 138.58799525 -47.09765625 135.87890625 C-41.1511119 133.7430046 -37.12878522 130.96851259 -34.18359375 125.19140625 C-32.64477103 119.54905627 -33.35805332 116.27737902 -36.18359375 111.19140625 C-42.22177601 103.77306804 -50.59777985 101.58192854 -59.55859375 99.44140625 C-118.23203758 84.66906522 -118.23203758 84.66906522 -132.4296875 61.125 C-138.53374416 49.69945805 -139.06234079 35.67831086 -135.62109375 23.31640625 C-129.57795311 6.29347488 -118.20222354 -2.55510346 -102.5 -10.09765625 C-73.30432181 -22.03099117 -24.76559837 -20.51247235 0 0 Z " fill="#1A4589" transform="translate(144.18359375,1196.80859375)"/>
<path d="M0 0 C1.11696762 0.00222061 2.23393524 0.00444122 3.38475037 0.00672913 C4.64598221 0.00680466 5.90721405 0.00688019 7.20666504 0.00695801 C8.59341979 0.01206542 9.98017414 0.01728142 11.3669281 0.02259827 C12.77797394 0.0244625 14.18902042 0.02588638 15.60006714 0.02688599 C19.3204272 0.03071072 23.04074845 0.04054062 26.76109314 0.05158997 C30.55482966 0.06180504 34.34857243 0.06638381 38.14231873 0.07142639 C45.59090416 0.08216294 53.03945758 0.09923882 60.48802185 0.12025452 C64.23959953 8.92589678 67.69447063 17.82600611 71.0388031 26.79212952 C71.57116319 28.21429193 72.10372608 29.63637844 72.63647461 31.05839539 C73.77013116 34.08559911 74.9024265 37.11330693 76.03361511 40.14143372 C77.82551067 44.93813831 79.6206441 49.7336272 81.41624451 54.52894592 C83.89168448 61.14065571 86.36590937 67.75281873 88.83909607 74.3653717 C93.83629871 87.7260497 98.83837638 101.08489917 103.84431458 114.44230652 C104.85369421 117.13573726 105.86264763 119.82932705 106.87123108 122.52305603 C111.49876205 134.88158604 116.12857241 147.23875883 120.87083435 159.55384827 C121.19107574 160.38611938 121.51131714 161.2183905 121.84126282 162.07588196 C123.24899324 165.73048898 124.66289484 169.38248395 126.08909607 173.02992249 C126.55074158 174.22117737 127.01238708 175.41243225 127.48802185 176.63978577 C127.87989685 177.64114563 128.27177185 178.64250549 128.67552185 179.67420959 C129.48802185 182.12025452 129.48802185 182.12025452 129.48802185 185.12025452 C109.35802185 185.12025452 89.22802185 185.12025452 68.48802185 185.12025452 C65.51802185 175.22025452 62.54802185 165.32025452 59.48802185 155.12025452 C38.69802185 154.79025452 17.90802185 154.46025452 -3.51197815 154.12025452 C-4.50197815 158.08025452 -5.49197815 162.04025452 -6.51197815 166.12025452 C-8.49197815 172.39025452 -10.47197815 178.66025452 -12.51197815 185.12025452 C-31.98197815 185.12025452 -51.45197815 185.12025452 -71.51197815 185.12025452 C-70.71082072 180.31330994 -69.7709281 176.79091657 -68.03419495 172.3316803 C-67.65763606 171.35667131 -67.65763606 171.35667131 -67.27346992 170.36196518 C-66.73008004 168.95659137 -66.18415295 167.55219646 -65.63595009 166.14869308 C-64.45127348 163.11487967 -63.27956548 160.07611146 -62.1072607 157.03750038 C-61.49369806 155.44716695 -60.87954746 153.85706024 -60.2648325 152.26717186 C-57.11350361 144.11029312 -54.03511706 135.92665969 -50.9690094 127.73744202 C-50.42368838 126.2823737 -49.87833911 124.82731598 -49.33296204 123.37226868 C-47.94699882 119.67351623 -46.56228968 115.97429542 -45.17783356 112.27497864 C-43.71277442 108.36109864 -42.24635 104.44773022 -40.78004456 100.53431702 C-38.44126814 94.29201372 -36.10310407 88.04948146 -33.76539612 81.80677795 C-29.67781823 70.8915108 -25.58501813 59.97820367 -21.49156189 49.06513977 C-20.10885287 45.37875616 -18.72635941 41.69229179 -17.34414673 38.00572205 C-16.71099905 36.31753514 -16.07749659 34.62948125 -15.44360352 32.9415741 C-13.64036902 28.13842988 -11.84641764 23.33196175 -10.05982971 18.52259827 C-9.64750092 17.41553528 -9.23517212 16.30847229 -8.81034851 15.16786194 C-8.00431581 13.00348558 -7.20043135 10.83830774 -6.39891052 8.67225647 C-6.0367746 7.70118958 -5.67463867 6.73012268 -5.30152893 5.72962952 C-4.97983734 4.86305725 -4.65814575 3.99648499 -4.32670593 3.10365295 C-3.11302392 0.14902804 -3.11302392 0.14902804 0 0 Z M27.48802185 51.12025452 C25.13452249 58.74180027 22.78706791 66.36517015 20.44729614 73.99094009 C19.36064431 77.53187367 18.27192561 81.07214385 17.17845154 84.61097717 C16.12316481 88.02649486 15.07334941 91.44365019 14.02729797 94.86200714 C13.62735688 96.16553743 13.22545176 97.46846681 12.82154846 98.77077484 C12.25595013 100.59562417 11.6979901 102.42283563 11.1403656 104.25013733 C10.82059753 105.28938354 10.50082947 106.32862976 10.17137146 107.39936829 C9.32563191 110.29927663 9.32563191 110.29927663 9.48802185 114.12025452 C22.02802185 114.12025452 34.56802185 114.12025452 47.48802185 114.12025452 C45.84203413 106.66147387 45.84203413 106.66147387 43.82395935 99.35682678 C43.51023376 98.32288284 43.19650818 97.2889389 42.87327576 96.22366333 C42.53989197 95.13895248 42.20650818 94.05424164 41.86302185 92.93666077 C41.51545837 91.79994431 41.1678949 90.66322784 40.80979919 89.49206543 C40.07870837 87.10560746 39.34576741 84.71971556 38.61106873 82.33436584 C37.48473208 78.67205776 36.36895795 75.00663631 35.25364685 71.34095764 C34.54074526 69.01849544 33.82722552 66.69622288 33.11302185 64.37416077 C32.77963806 63.2752803 32.44625427 62.17639984 32.10276794 61.04421997 C31.78904236 60.03234116 31.47531677 59.02046234 31.15208435 57.97792053 C30.74143738 56.63963951 30.74143738 56.63963951 30.32249451 55.27432251 C29.58997662 52.95292425 29.58997662 52.95292425 27.48802185 51.12025452 Z " fill="#1A4589" transform="translate(248.51197814941406,1183.8797454833984)"/>
<path d="M0 0 C20.79 0 41.58 0 63 0 C68.62520564 13.50049354 68.62520564 13.50049354 70.57348633 18.68066406 C71.01709 19.8570343 71.46069366 21.03340454 71.91773987 22.24542236 C72.38921739 23.50213892 72.86064632 24.75887371 73.33203125 26.015625 C73.84190165 27.37024409 74.35195224 28.72479537 74.86216736 30.07928467 C76.2302609 33.71287394 77.59570665 37.34745281 78.96061707 40.98223877 C80.10917098 44.03975517 81.2593659 47.09665308 82.40958977 50.15354156 C88.46992248 66.25981473 94.51635742 82.3713055 100.55859375 98.484375 C100.81993418 99.18129015 101.0812746 99.8782053 101.35053444 100.59623909 C103.90382506 107.40538738 106.45635074 114.21482032 109.0059557 121.02534962 C113.51329155 133.06502964 118.02617186 145.10222167 122.609375 157.11328125 C122.95127869 158.01053925 123.29318237 158.90779724 123.64544678 159.83224487 C125.17222083 163.83794888 126.70353592 167.8417678 128.24511719 171.84179688 C128.75734178 173.18222277 129.26939902 174.52271264 129.78125 175.86328125 C130.4319043 177.55384644 130.4319043 177.55384644 131.09570312 179.27856445 C132 182 132 182 132 185 C112.2 185 92.4 185 72 185 C67.84772601 175.31136068 65.06911291 165.08422813 62 155 C41.21 154.67 20.42 154.34 -1 154 C-2.32 159.28 -3.64 164.56 -5 170 C-6.65 174.95 -8.3 179.9 -10 185 C-29.47 185 -48.94 185 -69 185 C-65.62459818 173.74866059 -65.62459818 173.74866059 -63.68530273 168.53393555 C-63.24792786 167.35335068 -62.81055298 166.17276581 -62.35992432 164.95640564 C-61.884567 163.68314449 -61.40912058 162.4099166 -60.93359375 161.13671875 C-60.42592867 159.77060174 -59.91850966 158.40439327 -59.41131592 157.0381012 C-58.04277347 153.35431648 -56.67005832 149.6721001 -55.29632187 145.99024963 C-54.43285005 143.67503215 -53.570549 141.35938205 -52.70864868 139.0435791 C-43.91874535 115.42677151 -35.07156461 91.831536 -26.1875 68.25 C-25.92509899 67.55333096 -25.66269798 66.85666191 -25.39234543 66.13888168 C-19.52088806 50.5512471 -13.62153183 34.97436442 -7.68032265 19.41316986 C-7.09763294 17.8869227 -6.51524053 16.36056199 -5.93315697 14.83408356 C-5.12750959 12.72197777 -4.32045848 10.61041423 -3.51293945 8.49902344 C-2.82020683 6.68600739 -2.82020683 6.68600739 -2.11347961 4.83636475 C-1 2 -1 2 0 0 Z M30 52 C27.64816175 59.63932561 25.30083559 67.28001657 22.95927429 74.92249775 C21.87187963 78.47107287 20.7829306 82.0191554 19.69042969 85.56616211 C18.63637935 88.98853482 17.58641175 92.41213542 16.53927612 95.83662987 C16.13883953 97.14362437 15.73692804 98.45016793 15.33352661 99.75625038 C14.76924251 101.58410668 14.21066068 103.41372042 13.65234375 105.2434082 C13.33257568 106.28487503 13.01280762 107.32634186 12.68334961 108.39936829 C11.87293199 111.03543211 11.87293199 111.03543211 12 114 C24.54 114 37.08 114 50 114 C48.42026281 105.92165324 48.42026281 105.92165324 46.30419922 98.09130859 C45.98401825 97.0509848 45.66383728 96.01066101 45.33395386 94.93881226 C44.99429596 93.85298859 44.65463806 92.76716492 44.3046875 91.6484375 C43.95238068 90.50839264 43.60007385 89.36834778 43.23709106 88.1937561 C42.12104259 84.58604436 40.99813831 80.98051008 39.875 77.375 C39.11282563 74.91550573 38.35110231 72.45587163 37.58984375 69.99609375 C35.73177558 63.99576898 33.86808802 57.99721235 32 52 C31.34 52 30.68 52 30 52 Z " fill="#1A4589" transform="translate(1524,1184)"/>
<path d="M0 0 C1.11696762 0.00222061 2.23393524 0.00444122 3.38475037 0.00672913 C4.64598221 0.00680466 5.90721405 0.00688019 7.20666504 0.00695801 C8.59341979 0.01206542 9.98017414 0.01728142 11.3669281 0.02259827 C12.77797394 0.0244625 14.18902042 0.02588638 15.60006714 0.02688599 C19.3204272 0.03071072 23.04074845 0.04054062 26.76109314 0.05158997 C30.55482966 0.06180504 34.34857243 0.06638381 38.14231873 0.07142639 C45.59090416 0.08216294 53.03945758 0.09923882 60.48802185 0.12025452 C64.28066255 9.0172588 67.76467104 18.01359466 71.14427185 27.07337952 C71.68478079 28.5172702 72.22549156 29.96108534 72.76638794 31.40483093 C73.91359636 34.46816668 75.05944472 37.53200612 76.20417786 40.5962677 C78.01173481 45.43471814 79.82252484 50.2719547 81.6337738 55.10902405 C84.08849958 61.6653812 86.54201847 68.22218843 88.99436951 74.7794342 C93.45508892 86.70665806 97.91897897 98.63269075 102.38734436 110.55705261 C103.24343258 112.84198941 104.09920851 115.12704323 104.95466614 117.41221619 C109.37702834 129.22464158 113.82235018 141.02733689 118.33958435 152.80384827 C118.72195755 153.8018042 119.10433075 154.79976013 119.49829102 155.82795715 C121.28170354 160.48071472 123.0704439 165.13128195 124.86961365 169.77796936 C125.48866399 171.38809902 126.10756986 172.99828423 126.7263031 174.60853577 C127.00950409 175.33366867 127.29270508 176.05880157 127.58448792 176.8059082 C128.70385423 179.73095156 129.48802185 181.95870317 129.48802185 185.12025452 C109.35802185 185.12025452 89.22802185 185.12025452 68.48802185 185.12025452 C65.51802185 175.22025452 62.54802185 165.32025452 59.48802185 155.12025452 C38.69802185 154.79025452 17.90802185 154.46025452 -3.51197815 154.12025452 C-4.50197815 158.08025452 -5.49197815 162.04025452 -6.51197815 166.12025452 C-8.49197815 172.39025452 -10.47197815 178.66025452 -12.51197815 185.12025452 C-31.98197815 185.12025452 -51.45197815 185.12025452 -71.51197815 185.12025452 C-70.72510387 181.1858831 -69.80914627 177.94250602 -68.42433167 174.22181702 C-67.98679565 173.04082428 -67.54925964 171.85983154 -67.09846497 170.64305115 C-66.61270167 169.34374937 -66.12683817 168.04448506 -65.6408844 166.74525452 C-65.1303972 165.37228652 -64.6202119 163.99920625 -64.11030579 162.62602234 C-62.72586488 158.90099488 -61.33648169 155.17782858 -59.94603348 151.45503998 C-58.77765632 148.32510673 -57.61206292 145.19413971 -56.44637585 142.06320381 C-45.58267551 112.88780084 -34.60687948 83.75462959 -23.60695267 54.63037109 C-20.24940731 45.7397252 -16.90614275 36.84387591 -13.58229065 27.94056702 C-13.03652626 26.4796312 -13.03652626 26.4796312 -12.47973633 24.98918152 C-10.85261628 20.63263731 -9.228255 16.27510178 -7.60890198 11.91566467 C-7.06497529 10.45778231 -6.52095583 8.99993455 -5.9768219 7.54212952 C-5.51912415 6.31075256 -5.06142639 5.07937561 -4.58985901 3.8106842 C-3.12306318 0.14950865 -3.12306318 0.14950865 0 0 Z M27.48802185 51.12025452 C25.13452249 58.74180027 22.78706791 66.36517015 20.44729614 73.99094009 C19.36064431 77.53187367 18.27192561 81.07214385 17.17845154 84.61097717 C16.12316481 88.02649486 15.07334941 91.44365019 14.02729797 94.86200714 C13.62735688 96.16553743 13.22545176 97.46846681 12.82154846 98.77077484 C12.25595013 100.59562417 11.6979901 102.42283563 11.1403656 104.25013733 C10.82059753 105.28938354 10.50082947 106.32862976 10.17137146 107.39936829 C9.32563191 110.29927663 9.32563191 110.29927663 9.48802185 114.12025452 C22.02802185 114.12025452 34.56802185 114.12025452 47.48802185 114.12025452 C45.84203413 106.66147387 45.84203413 106.66147387 43.82395935 99.35682678 C43.51023376 98.32288284 43.19650818 97.2889389 42.87327576 96.22366333 C42.53989197 95.13895248 42.20650818 94.05424164 41.86302185 92.93666077 C41.51545837 91.79994431 41.1678949 90.66322784 40.80979919 89.49206543 C40.07870837 87.10560746 39.34576741 84.71971556 38.61106873 82.33436584 C37.48473208 78.67205776 36.36895795 75.00663631 35.25364685 71.34095764 C34.54074526 69.01849544 33.82722552 66.69622288 33.11302185 64.37416077 C32.77963806 63.2752803 32.44625427 62.17639984 32.10276794 61.04421997 C31.78904236 60.03234116 31.47531677 59.02046234 31.15208435 57.97792053 C30.74143738 56.63963951 30.74143738 56.63963951 30.32249451 55.27432251 C29.58997662 52.95292425 29.58997662 52.95292425 27.48802185 51.12025452 Z " fill="#1A4589" transform="translate(1115.511978149414,1183.8797454833984)"/>
<path d="M0 0 C21.12 0 42.24 0 64 0 C67.83404355 10.16639935 71.66751711 20.33301238 75.5 30.5 C75.93659376 31.65816412 75.93659376 31.65816412 76.3820076 32.83972549 C83.06920359 50.57940363 89.75167861 68.32080745 96.40234375 86.07421875 C96.78291616 87.09005791 96.78291616 87.09005791 97.17117691 88.12641907 C99.42163661 94.13367384 101.67153528 100.14113856 103.92041016 106.14898682 C109.15310758 120.12697299 114.40503315 134.09703926 119.72265625 148.04296875 C120.17410507 149.22741074 120.62555389 150.41185272 121.09068298 151.63218689 C123.21075871 157.19194395 125.33524072 162.74996067 127.46655273 168.30541992 C128.20693439 170.2426506 128.94725409 172.17990495 129.6875 174.1171875 C130.02681046 174.99710861 130.36612091 175.87702972 130.7157135 176.78361511 C131.01964523 177.58060318 131.32357697 178.37759125 131.63671875 179.19873047 C132.03443481 180.23487991 132.03443481 180.23487991 132.44018555 181.29196167 C133 183 133 183 133 185 C112.87 185 92.74 185 72 185 C63 156 63 156 63 154 C41.88 154 20.76 154 -1 154 C-1.33 156.31 -1.66 158.62 -2 161 C-4.31 168.92 -6.62 176.84 -9 185 C-28.47 185 -47.94 185 -68 185 C-67.24413552 180.46481314 -66.43662675 177.07470164 -64.86474609 172.86108398 C-64.19407608 171.05139885 -64.19407608 171.05139885 -63.50985718 169.20515442 C-63.01450741 167.88542118 -62.51903015 166.5657358 -62.0234375 165.24609375 C-61.50465311 163.85288208 -60.98632302 162.45950117 -60.46841431 161.06596375 C-59.06897309 157.30490777 -57.66266532 153.54645359 -56.25494385 149.7884903 C-55.07462593 146.63497546 -53.89833376 143.47996571 -52.7220726 140.32493591 C-42.568444 113.0915143 -32.31589422 85.89530877 -22.04139709 58.70730591 C-14.65463142 39.1530962 -7.33285248 19.57447397 0 0 Z M31 51 C26.46562176 64.96105992 22.05353432 78.95800076 17.75015259 92.99182129 C17.2496124 94.62370324 16.74812539 96.25529508 16.24569702 97.88659668 C15.53584506 100.1930367 14.82982789 102.50061418 14.125 104.80859375 C13.90975174 105.50647507 13.69450348 106.20435638 13.47273254 106.92338562 C12.3722371 110.39895422 12.3722371 110.39895422 12 114 C24.87 114 37.74 114 51 114 C48.68755491 105.45529375 48.68755491 105.45529375 46.19067383 96.9777832 C45.87056839 95.93753494 45.55046295 94.89728668 45.22065735 93.82551575 C44.88616074 92.74485336 44.55166412 91.66419098 44.20703125 90.55078125 C43.85613937 89.41215134 43.5052475 88.27352142 43.14372253 87.10038757 C42.03498018 83.50390891 40.9237825 79.90819449 39.8125 76.3125 C39.05517536 73.85747221 38.29801235 71.40239455 37.54101562 68.94726562 C35.69587779 62.96426624 33.8487296 56.98189045 32 51 C31.67 51 31.34 51 31 51 Z " fill="#1A4589" transform="translate(827,1184)"/>
<path d="M0 0 C0.6705542 0.13944031 1.3411084 0.27888062 2.03198242 0.42254639 C62.93764256 13.11278881 120.9366794 34.22323806 178.25634766 58.03222656 C182.18261977 59.66275331 186.11329578 61.28233234 190.04554749 62.89837646 C192.97046504 64.10183603 195.89289783 65.31123254 198.81460571 66.52246094 C200.1784448 67.08678307 201.54316123 67.64898992 202.90878296 68.20898438 C204.77255635 68.97407248 206.63249156 69.748491 208.4921875 70.5234375 C209.53745605 70.95575684 210.58272461 71.38807617 211.65966797 71.83349609 C214 73 214 73 215 75 C209.58710287 73.21247804 204.19160038 71.38130152 198.81005859 69.50154114 C113.94802288 39.86190483 26.2139292 20.99528525 -153.35890579 8.68214417 C-155.86304118 8.68761032 -158.36716706 8.68995964 -160.87130737 8.6920166 C-188.00571306 8.72667596 -214.9681554 9.49244566 -242 12 C-243.57599008 12.14083814 -245.15199893 12.28146646 -246.72802734 12.421875 C-329.48081691 19.92777714 -410.44989104 41.58008742 -518.9921875 87.56591797 C-522.01884792 89.00898642 -525.05517127 90.42987951 -528.09375 91.84765625 C-554.21711808 104.11180703 -579.36150088 117.99316222 -604 133 C-604.96824707 133.58942383 -605.93649414 134.17884766 -606.93408203 134.78613281 C-617.000763 140.93247343 -626.976755 147.21076961 -636.85009766 153.66333008 C-643.03627982 157.7050813 -646.6285732 158.6288421 -654 158 C-658.60319521 156.1987497 -660.83701163 153.40608743 -663 149 C-663.79619691 144.05392828 -663.77142664 140.42713927 -661.359375 135.96484375 C-658.81628661 132.76914162 -656.16654301 130.69988109 -652.75 128.5625 C-652.10796631 128.14838867 -651.46593262 127.73427734 -650.80444336 127.30761719 C-648.54479563 125.85796263 -646.27268112 124.4291274 -644 123 C-642.17309745 121.83736471 -640.34627897 120.6745973 -638.51953125 119.51171875 C-618.74789568 106.99023164 -598.55147089 95.19296943 -578 84 C-576.99018066 83.44731445 -575.98036133 82.89462891 -574.93994141 82.32519531 C-502.138246 42.55300827 -423.49848324 13.36724922 0 0 Z " fill="#E5B980" transform="translate(1812,579)"/>
<path d="M0 0 C1.19965393 0.00060425 2.39930786 0.0012085 3.63531494 0.00183105 C24.64743643 0.03036548 45.55106304 0.53665506 66.5 2.1875 C67.3023407 2.25066406 68.1046814 2.31382812 68.93133545 2.37890625 C130.13333647 7.27542637 192.07953239 17.30342868 250.4375 36.8125 C251.67483887 37.22604736 252.91217773 37.63959473 254.18701172 38.06567383 C262.35914607 40.90579215 262.35914607 40.90579215 263.5 43.1875 C261.33333333 42.64583333 259.16666667 42.10416667 257 41.5625 C256.28424805 41.38501221 255.56849609 41.20752441 254.83105469 41.0246582 C250.6657061 39.98946982 246.50865387 38.92995841 242.359375 37.83203125 C197.95120075 26.20697921 152.20449224 19.82742401 106.5 16.1875 C105.74942322 16.12691406 104.99884644 16.06632813 104.2255249 16.00390625 C61.57325328 12.60296652 18.14347715 12.69645193 -24.5 16.1875 C-25.27615662 16.25066406 -26.05231323 16.31382812 -26.85198975 16.37890625 C-93.14955512 21.84771399 -158.22219085 34.63371072 -221.5 55.1875 C-222.15015076 55.39848328 -222.80030151 55.60946655 -223.47015381 55.82684326 C-313.90386489 85.27258113 -399.58103136 132.17931306 -514.8046875 226.73828125 C-516.9583993 228.6953498 -519.13429047 230.61277402 -521.33203125 232.51953125 C-525.43031004 236.09398074 -529.37347502 239.81456708 -533.3125 243.5625 C-555.45646708 264.46404924 -555.45646708 264.46404924 -566.5 264.1875 C-571.00662188 263.35712066 -574.32615368 261.76251031 -577.375 258.3125 C-581.01568714 252.95854833 -581.90716873 249.69160278 -580.9609375 243.3203125 C-579.74185634 237.67947934 -576.16160789 234.83097918 -571.9296875 231.265625 C-569.63833266 229.30581668 -567.41922754 227.28255167 -565.21142578 225.22949219 C-560.11413554 220.48987787 -554.89401383 215.99015481 -549.46875 211.625 C-545.97717355 208.75823197 -542.58490453 205.78956682 -539.1875 202.8125 C-532.75915488 197.20229315 -526.16118789 191.87281918 -519.40576172 186.66357422 C-517.34672715 185.06878521 -515.2997111 183.45937709 -513.25390625 181.84765625 C-502.86358246 173.67862566 -492.28894244 165.82126663 -481.5 158.1875 C-480.6327832 157.57148926 -479.76556641 156.95547852 -478.87207031 156.32080078 C-450.69593588 136.34638249 -421.37892128 118.00989231 -391.00830078 101.55126953 C-389.19102955 100.56321453 -387.37735236 99.56853983 -385.56591797 98.56982422 C-313.42587901 58.80073962 -235.18727255 30.57204944 -48.5 1.1875 C-47.75228333 1.14619965 -47.00456665 1.10489929 -46.23419189 1.06234741 C-30.82034442 0.21936416 -15.43527514 -0.01449851 0 0 Z " fill="#E1742E" transform="translate(1656.5,601.8125)"/>
<path d="M0 0 C4.67574876 1.60054477 8.43098076 4.14596567 12.5 6.875 C29.62731317 18.13313461 47.71429958 27.77334862 66 37 C67.08748535 37.54914062 68.1749707 38.09828125 69.29541016 38.6640625 C137.9597547 73.09942292 212.40880128 95.19115585 288.8125 103.25 C289.59861664 103.33317474 290.38473328 103.41634949 291.19467163 103.50204468 C309.3446687 105.3971897 327.37585382 106.23872377 345.625 106.25 C346.62011597 106.25067474 347.61523193 106.25134949 348.64050293 106.25204468 C431.62331283 106.16376509 512.30184425 86.49873576 630.3203125 26.78125 C631.59986816 26.01506348 631.59986816 26.01506348 632.90527344 25.23339844 C634.48789807 24.2828224 636.06238526 23.31848309 637.62597656 22.33691406 C643.28964389 18.93459276 648.87536717 17.06111184 655.48828125 18.56640625 C660.99410549 21.5727985 663.97143376 24.91430128 666 31 C666.39680449 36.25765945 665.89498146 39.56102842 663 44 C657.95836438 48.68783663 652.25615688 52.00651427 646.3125 55.4375 C645.26231689 56.04585693 644.21213379 56.65421387 643.13012695 57.28100586 C630.96235324 64.26107344 618.53524492 70.70904447 606 77 C604.89785156 77.55574707 603.79570313 78.11149414 602.66015625 78.68408203 C542.17583889 109.02419823 476.26363861 127.94141322 409 135 C407.92669434 135.11714355 406.85338867 135.23428711 405.74755859 135.35498047 C372.06075772 138.87809111 336.65956591 138.69918479 303 135 C301.80101074 134.87109375 300.60202148 134.7421875 299.36669922 134.609375 C222.9388132 126.14243135 142.23697714 104.17835 79.609375 58.359375 C75.2743706 55.1891073 70.89560372 52.08546919 66.5 49 C56.84415075 42.20879023 47.28792401 35.28178579 37.72949219 28.35449219 C35.46609019 26.71467059 33.20192306 25.07591127 30.9375 23.4375 C29.83414307 22.63807983 29.83414307 22.63807983 28.70849609 21.82250977 C24.91545261 19.08077636 21.10613193 16.36632723 17.265625 13.69140625 C16.49742432 13.15523682 15.72922363 12.61906738 14.93774414 12.06665039 C13.48435493 11.05478118 12.02800601 10.04714391 10.56811523 9.04467773 C6.64410464 6.31223642 3.27071882 3.4921408 0 0 Z " fill="#E0732E" transform="translate(339,893)"/>
<path d="M0 0 C57.42 0 114.84 0 174 0 C174 15.18 174 30.36 174 46 C154.86 46 135.72 46 116 46 C116 91.87 116 137.74 116 185 C96.86 185 77.72 185 58 185 C58 139.13 58 93.26 58 46 C38.86 46 19.72 46 0 46 C0 30.82 0 15.64 0 0 Z " fill="#1A4589" transform="translate(596,1184)"/>
<path d="M0 0 C4.62471525 2.33229174 7.42442344 5.41794729 9.0625 10.3515625 C10.02376243 15.95066838 9.26880925 19.60859463 6.36172485 24.5647583 C4.14580435 27.61228009 1.27587593 29.40277785 -1.87890625 31.390625 C-2.55440018 31.83385101 -3.2298941 32.27707703 -3.92585754 32.73373413 C-6.1085373 34.1619048 -8.3040606 35.56888606 -10.5 36.9765625 C-12.01300531 37.96312241 -13.52488306 38.95141367 -15.03564453 39.94140625 C-18.00216005 41.88394199 -20.97254341 43.82028064 -23.94677734 45.75097656 C-46.65561127 60.51642418 -68.24072347 76.84722119 -89.56298828 93.53076172 C-118.36230021 116.04135912 -148.34970026 136.92922274 -179.9375 155.3515625 C-181.03819824 155.99544922 -181.03819824 155.99544922 -182.16113281 156.65234375 C-247.44339617 194.72249322 -247.44339617 194.72249322 -262.9375 193.3515625 C-268.90949462 191.63081829 -272.62453088 188.52112841 -275.9375 183.3515625 C-277.70011002 178.0531143 -277.62862141 172.42492674 -275.875 167.1640625 C-270.7031396 159.65652321 -263.3974337 156.32930399 -255.33270264 152.60357666 C-252.06644241 151.09209899 -248.81990769 149.53908161 -245.5703125 147.9921875 C-244.91688873 147.68221832 -244.26346497 147.37224915 -243.59024048 147.05288696 C-224.38989867 137.92946957 -206.09821478 127.3646531 -187.9375 116.3515625 C-186.98568848 115.77760742 -186.03387695 115.20365234 -185.05322266 114.61230469 C-162.2896627 100.86349026 -140.64145864 85.5333384 -119.26074219 69.74731445 C-106.98757734 60.69001394 -94.69620799 51.71710059 -81.9375 43.3515625 C-80.80368449 42.59133753 -79.67092239 41.82953979 -78.5390625 41.06640625 C-62.77280937 30.44679392 -46.62478643 20.47788199 -30.29150391 10.7578125 C-28.00508713 9.39193813 -25.72588102 8.01487329 -23.44921875 6.6328125 C-22.75795898 6.21410889 -22.06669922 5.79540527 -21.35449219 5.36401367 C-20.07387053 4.58771182 -18.79448628 3.80936343 -17.51660156 3.02856445 C-11.91271743 -0.35891782 -6.4288829 -2.15160194 0 0 Z " fill="#72A6D9" transform="translate(1159.9375,657.6484375)"/>
<path d="M0 0 C3.29311941 1.25896375 6.35323365 2.66536019 9.421875 4.3984375 C10.26903076 4.871604 11.11618652 5.34477051 11.98901367 5.83227539 C12.90013916 6.34137451 13.81126465 6.85047363 14.75 7.375 C88.38450061 47.90499162 171.60777335 69.43820373 257 77 C258.17796143 77.1045752 259.35592285 77.20915039 260.56958008 77.31689453 C274.74586084 78.38525192 288.97929806 78.24588712 303.1875 78.25 C303.88701279 78.25044186 304.58652557 78.25088371 305.30723572 78.25133896 C327.99090259 78.25884119 350.4616498 77.74920959 373 75 C373.71087769 74.91514343 374.42175537 74.83028687 375.1541748 74.74285889 C399.72092682 71.79733801 424.11024862 67.44733649 448.19921875 61.78515625 C454.27113001 60.53083542 458.81107174 60.84358507 464.3125 63.75 C468.56933697 67.31386351 471.56981299 70.54006733 472.2734375 76.19921875 C472.50222115 81.80441807 471.77705513 85.46391948 468.77734375 90.2109375 C462.47221849 96.55763501 454.33888479 97.47425007 445.875 99 C444.48452216 99.2581354 443.0940602 99.51635631 441.70361328 99.7746582 C427.86293097 102.31258369 413.98280405 104.41052145 400 106 C398.69111816 106.15098145 397.38223633 106.30196289 396.03369141 106.45751953 C310.27001163 116.06674222 223.61139122 104.47847416 79 51 C77.64914307 50.36143066 77.64914307 50.36143066 76.27099609 49.70996094 C53.15951744 38.73797162 31.10952019 25.85606723 11 10 C10.38592285 9.51821289 9.7718457 9.03642578 9.13916016 8.54003906 C2.83983444 3.57180512 2.83983444 3.57180512 0 1 C0 0.67 0 0.34 0 0 Z " fill="#72A6D9" transform="translate(321,797)"/>
<path d="M0 0 C19.14 0 38.28 0 58 0 C58 61.05 58 122.1 58 185 C38.86 185 19.72 185 0 185 C0 123.95 0 62.9 0 0 Z " fill="#1A4589" transform="translate(1961,1184)"/>
<path d="M0 0 C4.01840525 0.01143245 8.03654661 0.00456988 12.05494308 -0.00687122 C37.93000988 -0.06946779 63.65160197 0.82597502 89.31005859 4.44824219 C90.0767688 4.55467041 90.843479 4.66109863 91.63342285 4.77075195 C124.09983431 9.31879492 155.48839869 17.87424759 187.07800293 26.45245361 C191.82261468 27.73848443 196.57029492 29.01305144 201.31787109 30.28808594 C207.67849488 31.99831128 214.03873418 33.70993143 220.39599609 35.43261719 C221.61851074 35.76358398 222.84102539 36.09455078 224.10058594 36.43554688 C226.10181633 36.9935537 228.08910318 37.60375705 230.06005859 38.26074219 C229.73005859 38.92074219 229.40005859 39.58074219 229.06005859 40.26074219 C228.12774414 39.99447021 227.19542969 39.72819824 226.23486328 39.45385742 C138.94451537 14.65247126 47.5585016 7.89968662 -180.54315186 36.68121338 C-182.11585474 37.06148316 -183.68896329 37.44007991 -185.26251221 37.8168335 C-223.18945357 46.90141615 -260.83610984 58.66444052 -296.88037109 73.59008789 C-297.52094955 73.84880173 -298.16152802 74.10751556 -298.82151794 74.37406921 C-300.5025286 75.0538898 -302.17632825 75.75146969 -303.84936523 76.45068359 C-307.57325889 77.42673851 -310.20608854 77.09940993 -313.93994141 76.26074219 C-315.99932357 74.68188253 -316.78565352 73.56931796 -317.93994141 71.26074219 C-318.30308214 65.72284603 -318.28206168 62.88314016 -314.93994141 58.26074219 C-263.62097711 16.31832736 -150.09634054 10.41306491 -86.31494141 4.07324219 C-85.53370911 3.99433746 -84.75247681 3.91543274 -83.9475708 3.83413696 C-55.98056935 1.0448267 -28.09103758 -0.08050649 0 0 Z " fill="#72A6D9" transform="translate(1617.93994140625,531.7392578125)"/>
<path d="M0 0 C0.9075 0.78375 1.815 1.5675 2.75 2.375 C3.40097656 2.92929687 4.05195313 3.48359375 4.72265625 4.0546875 C6.30189755 5.40367921 7.87160632 6.7638797 9.43359375 8.1328125 C25.2588762 21.73582124 42.85347446 32.78375544 61 43 C62.01336426 43.57250488 63.02672852 44.14500977 64.07080078 44.73486328 C123.28295384 77.96888815 190.25268877 98.63191588 257.65209961 106.62036133 C271.58047481 108.34632722 271.58047481 108.34632722 275.9375 113.125 C277.43493392 117.17688001 277.81617697 120.73940647 277 125 C275.063133 128.5694752 272.91786596 130.69404468 269 132 C263.52969064 132.22104442 258.73760997 131.73837327 253.35546875 130.6015625 C252.64082458 130.451427 251.92618042 130.3012915 251.18988037 130.14660645 C248.85321839 129.65043878 246.5201938 129.13948404 244.1875 128.625 C243.37854279 128.4483783 242.56958557 128.27175659 241.7361145 128.08978271 C168.30264676 111.97293704 96.45344417 81.50868183 37 35 C36.18144531 34.36191406 35.36289063 33.72382812 34.51953125 33.06640625 C24.79100261 25.37947663 15.35687703 17.34441394 6.1875 9 C5.57036133 8.44803955 4.95322266 7.8960791 4.31738281 7.32739258 C2.81891484 5.94667358 1.40140296 4.47914196 0 3 C0 2.01 0 1.02 0 0 Z " fill="#64C6BC" transform="translate(217,703)"/>
<path d="M0 0 C4.00099441 3.23484654 7.55096921 6.52696399 10.9375 10.40234375 C16.202919 16.30444339 21.74665236 21.89787276 27.34790039 27.47827148 C29.0670867 29.19207233 30.78082583 30.91119082 32.49414062 32.63085938 C38.16269025 38.30283819 43.89325076 43.79662136 50 49 C51.77570221 50.61967817 53.54708307 52.24411718 55.3125 53.875 C60.71476571 58.79624205 66.31305671 63.4139906 72 68 C73.18326549 68.97407866 74.36550053 69.94941 75.546875 70.92578125 C86.11071818 79.63058258 96.98665301 87.87407195 108 96 C108.75007324 96.556875 109.50014648 97.11375 110.27294922 97.6875 C138.8263004 118.8560348 169.4404722 137.65934402 201 154 C201.598125 154.31001953 202.19625 154.62003906 202.8125 154.93945312 C218.99924077 163.31709478 235.27906435 171.26697995 252.14355469 178.19555664 C267.38568536 184.49334653 267.38568536 184.49334653 271 192 C271.47122904 195.39390805 271.64463446 198.62583224 271 202 C269.71264648 203.63671875 269.71264648 203.63671875 268 205 C259.52308753 205.18127817 252.79289062 201.42389474 245.375 197.6875 C244.08430807 197.04874139 242.79320488 196.41081315 241.50170898 195.77368164 C238.26183358 194.16945385 235.03191737 192.54633101 231.80621338 190.91381836 C230.12663121 190.06406658 228.44498922 189.21838951 226.76318359 188.37304688 C197.45866761 173.59445577 169.62770493 156.16149486 143 137 C142.18901855 136.41718262 141.37803711 135.83436523 140.54248047 135.23388672 C129.99005617 127.62261194 119.73942403 119.71793794 109.71923828 111.41943359 C107.30694282 109.42779971 104.87004633 107.46681581 102.4375 105.5 C91.52581359 96.55143558 80.97986605 87.1983174 70.67431641 77.56103516 C68.92857685 75.93340921 67.1740481 74.31567965 65.41796875 72.69921875 C58.65833501 66.4604472 52.01719753 60.11711092 45.5 53.625 C44.53066528 52.66255371 44.53066528 52.66255371 43.54174805 51.68066406 C39.7657699 47.89246275 36.18793218 43.98518504 32.69238281 39.9375 C30.08074783 36.94760744 27.34861158 34.0749786 24.625 31.1875 C19.93003117 26.16899535 15.43884762 21.04957476 11.14453125 15.6796875 C8.04400805 11.8054454 4.84235059 8.01558694 1.65234375 4.21484375 C0 2 0 2 0 0 Z " fill="#1A4589" transform="translate(234,825)"/>
<path d="M0 0 C19.40436736 2.80263974 38.6585235 4.82463312 58.27645874 5.20739746 C59.17890823 5.2258371 60.08135773 5.24427673 61.01115417 5.26327515 C65.53173852 5.35287218 70.05127536 5.42320306 74.57260132 5.46032715 C76.24081879 5.48508524 77.90903194 5.51013716 79.57723999 5.53552246 C80.71932167 5.53554512 80.71932167 5.53554512 81.88447571 5.53556824 C87.83391093 5.64700872 91.82434563 7.0960471 96.31161499 10.97692871 C99.33905843 14.56500983 99.33881503 18.19842579 99.28036499 22.69177246 C98.83961667 26.2728526 97.35091 28.30732357 94.99911499 30.97692871 C91.21015595 33.71909439 88.57324632 34.36047334 83.92489624 34.37536621 C82.11432739 34.38467163 82.11432739 34.38467163 80.2671814 34.39416504 C78.96184448 34.38022705 77.65650757 34.36628906 76.31161499 34.35192871 C75.63395081 34.34760834 74.95628662 34.34328796 74.25808716 34.33883667 C46.61708636 34.13492567 19.20303888 30.69637324 -8.00088501 25.97692871 C-8.66847839 25.86558594 -9.33607178 25.75424316 -10.02389526 25.63952637 C-12.04659811 25.29855182 -14.06472255 24.93730789 -16.08291626 24.57067871 C-17.267323 24.36120605 -18.45172974 24.1517334 -19.67202759 23.93591309 C-24.36329966 22.58444138 -27.79734917 20.46128958 -30.87588501 16.66442871 C-32.33305936 13.1834011 -32.4021049 10.72164773 -32.00088501 6.97692871 C-26.02195664 -6.55433023 -11.812048 -1.71980242 0 0 Z " fill="#1A4589" transform="translate(629.0008850097656,1043.0230712890625)"/>
<path d="M0 0 C2.91834217 1.31483573 4.94920929 2.71633276 7.171875 5.01171875 C8.0383667 5.89573364 8.0383667 5.89573364 8.92236328 6.79760742 C9.5254834 7.42127197 10.12860352 8.04493652 10.75 8.6875 C15.0270519 13.03867282 19.29695587 17.2936119 23.95703125 21.23828125 C26.10523794 23.09075011 28.18610484 25.00849683 30.26464844 26.93847656 C35.39612814 31.70087823 40.64128127 36.2371898 46.09765625 40.62890625 C49.38963528 43.31831577 52.59994494 46.09181954 55.8125 48.875 C62.08534932 54.28625049 68.52625651 59.43991422 75.078125 64.5078125 C77.14263859 66.11074785 79.19682476 67.72632058 81.25 69.34375 C91.63979633 77.51025293 102.22028905 85.35686046 113 93 C113.79664063 93.5671875 114.59328125 94.134375 115.4140625 94.71875 C129.40944963 104.67102529 143.65818407 114.18790224 158.234375 123.26953125 C159.08636475 123.80175293 159.93835449 124.33397461 160.81616211 124.88232422 C162.42276956 125.88321317 164.0327151 126.87877393 165.64672852 127.86767578 C179.42912324 136.43859775 179.42912324 136.43859775 182 144 C182.75568128 148.30483606 182.49360602 151.23570681 180.0625 155 C176.57923244 157.27478698 174.65998531 157.92808412 170.55078125 157.65234375 C165.64795947 156.39848274 161.87345826 153.40052031 157.87109375 150.39990234 C155.76354388 148.82308985 153.6330295 147.28044014 151.5 145.73828125 C133.97997241 133.0143479 117.16729804 119.47120264 100.68701172 105.43261719 C99.01649597 104.01400845 97.33898958 102.60406198 95.66015625 101.1953125 C89.33195417 95.86072074 83.17203523 90.37593939 77.1484375 84.69921875 C76.41621979 84.00932861 75.68400208 83.31943848 74.92959595 82.60864258 C67.35122337 75.43504565 59.94337265 68.09513753 52.57568359 60.70605469 C50.34458428 58.46951005 48.10807053 56.238477 45.87109375 54.0078125 C44.42155368 52.55761277 42.97232321 51.10710349 41.5234375 49.65625 C40.86918793 49.00402466 40.21493835 48.35179932 39.54086304 47.67980957 C35.16325291 43.28013196 31.04549553 38.70524318 27 34 C25.96613017 32.82048577 24.93116529 31.64192936 23.89453125 30.46484375 C18.24499925 24.01172623 12.69106549 17.493912 7.3125 10.8125 C6.80759033 10.18915771 6.30268066 9.56581543 5.7824707 8.92358398 C3.51145866 6.07671236 1.42857383 3.36675587 0 0 Z " fill="#E5B980" transform="translate(165,704)"/>
<path d="M0 0 C0.76578369 0.08708221 1.53156738 0.17416443 2.32055664 0.2638855 C20.85157049 2.40049223 39.12952031 5.57739888 57.375 9.4375 C58.20136963 9.61049622 59.02773926 9.78349243 59.87915039 9.96173096 C93.18693798 16.97597624 124.68184994 28.31813804 156.44262695 40.33648682 C159.1530593 41.3541683 161.86975725 42.35126271 164.59179688 43.33740234 C165.35260559 43.61492844 166.11341431 43.89245453 166.89727783 44.1783905 C168.84170946 44.88593403 170.78842309 45.58719801 172.73535156 46.2878418 C175.375 47.4375 175.375 47.4375 176.375 49.4375 C170.88376823 47.9681652 165.40714114 46.46655708 159.96484375 44.82421875 C108.04957343 29.16024712 53.85014554 22.13913964 -0.296875 21.203125 C-1.29746948 21.1849321 -2.29806396 21.1667392 -3.32897949 21.147995 C-8.29231971 21.0603493 -13.2547715 20.99155245 -18.21875 20.9543457 C-20.03646314 20.92954912 -21.85417177 20.9044186 -23.671875 20.87890625 C-24.503703 20.87888611 -25.33553101 20.87886597 -26.19256592 20.87884521 C-30.82908174 20.79850448 -33.83289092 20.39602257 -37.625 17.4375 C-39.98357464 14.40504689 -39.98433916 11.17684186 -39.87890625 7.40234375 C-39.50142532 4.48122208 -38.48358628 2.69435476 -36.625 0.4375 C-27.99480075 -5.3841372 -10.00536906 -1.15590029 0 0 Z " fill="#64C6BC" transform="translate(1611.625,497.5625)"/>
<path d="M0 0 C4.83587093 4.21832356 8.10665943 8.52328088 9 15 C9.07136152 22.35023694 7.77703 27.99954006 2.61328125 33.46875 C-2.32687569 37.92915417 -7.30671876 39.47782827 -13.92578125 39.23828125 C-21.01236218 38.42419192 -25.15866581 35.58446463 -29.58984375 30.04296875 C-33.02630366 25.06438556 -33.6820161 19.93689421 -33 14 C-31.64725008 6.99516626 -27.76998511 2.98272395 -22 -1 C-14.9293852 -4.38800293 -6.7239429 -4.02631311 0 0 Z " fill="#1A4589" transform="translate(796,1041)"/>
<path d="M0 0 C5.73737922 5.19739059 8.98403719 10.02878579 9.375 17.8125 C9.22136952 23.89445944 7.50529581 28.2702588 3.38671875 32.7578125 C-1.79611733 37.51544917 -6.76416088 39.4974637 -13.92578125 39.23828125 C-20.95938339 38.43027799 -25.19158943 35.61957949 -29.5859375 30.1015625 C-33.19212303 24.74209339 -33.3539621 19.62800028 -32.53515625 13.42578125 C-31.10985947 6.96512941 -27.4300958 2.72653633 -22 -1 C-14.50346409 -3.86231371 -7.01134202 -4.15181429 0 0 Z " fill="#64C6BC" transform="translate(551,806)"/>
<path d="M0 0 C5.73737922 5.19739059 8.98403719 10.02878579 9.375 17.8125 C9.22136952 23.89445944 7.50529581 28.2702588 3.38671875 32.7578125 C-1.8284922 37.54516801 -6.79072953 39.46935396 -13.98828125 39.25 C-20.0985157 38.49066989 -24.70003182 35.20224163 -29 31 C-32.31555354 26.08383441 -33.26705027 20.85787681 -33 15 C-31.60543881 8.71985689 -29.01367356 4.01058729 -23.85546875 0.1171875 C-16.47210353 -4.32837556 -7.37623796 -4.36788993 0 0 Z " fill="#1A4589" transform="translate(865,1026)"/>
<path d="M0 0 C4.46341087 3.02306065 7.39332313 7.3440319 9.08203125 12.41015625 C9.66080941 18.81466868 9.86575267 24.97166141 6.5546875 30.65625 C2.87011331 35.04450944 -2.26182744 38.36400003 -7.91796875 39.41015625 C-13.53143748 39.84196154 -17.97599959 39.03200094 -22.91796875 36.41015625 C-27.65879244 32.30144238 -31.57412738 28.2149583 -32.15625 21.7734375 C-32.34043202 14.20258729 -31.74551312 8.61400414 -26.52734375 2.8828125 C-18.88794095 -4.05296109 -8.9738482 -4.38476996 0 0 Z " fill="#E1742E" transform="translate(1051.91796875,873.58984375)"/>
<path d="M0 0 C5.693834 2.66932104 8.83359312 6.37872833 11.25390625 12.15625 C13.34256675 18.28451763 12.91857143 23.49908302 10.48828125 29.42578125 C7.81073533 34.47274281 2.8724273 38.49174298 -2.49609375 40.28125 C-10.84588105 40.90778527 -16.5302259 40.58613987 -23.12109375 35.09375 C-27.63107814 29.75297901 -30.26382204 24.69632533 -29.87109375 17.578125 C-28.82935256 11.1974602 -26.54349677 6.72168066 -21.37109375 2.78125 C-14.90307961 -1.6121181 -7.607205 -2.19049408 0 0 Z " fill="#72A6D9" transform="translate(845.49609375,836.71875)"/>
<path d="M0 0 C4.24956311 2.97395254 6.59427278 6.63438083 8.23828125 11.56640625 C8.72647308 18.07250121 9.1429053 24.04607569 5.23828125 29.56640625 C0.19131432 35.27744777 -4.46043395 38.23553819 -12.01171875 38.81640625 C-18.49726466 38.38403652 -24.16464186 36.29117972 -28.76171875 31.56640625 C-33.280698 25.44726386 -33.73805103 18.96859892 -32.76171875 11.56640625 C-31.01946237 5.62511623 -27.81644042 2.00361699 -22.76171875 -1.43359375 C-14.78131989 -5.15777989 -7.55247197 -4.12273353 0 0 Z " fill="#E5B980" transform="translate(1128.76171875,736.43359375)"/>
<path d="M0 0 C4.83363658 4.22467449 8.10605169 8.51887479 9 15 C9.17422755 22.07363837 7.77088019 27.65946248 3 33 C-2.29539056 37.7305489 -7.95899094 39.33893056 -15 39 C-21.67609976 38.0509466 -25.50887244 35.22824632 -29.625 29.96875 C-33.38059333 24.59142319 -33.77661989 19.43906361 -33 13 C-30.88173292 5.80803932 -25.97098247 1.29898985 -19.625 -2.375 C-12.91156512 -3.97343688 -5.98395043 -3.64875026 0 0 Z " fill="#72A6D9" transform="translate(1276,599)"/>
<path d="M0 0 C4.4230738 3.22660532 6.5404862 7.53942735 8.23828125 12.6328125 C8.9794628 19.4735537 8.35860184 25.00211046 4.23828125 30.6328125 C-0.48668145 35.78107694 -5.01711276 38.20074258 -12.01171875 39.0078125 C-18.52492965 38.35649141 -23.8462777 36.38523729 -28.69921875 31.9453125 C-32.51539885 25.81629598 -34.58515954 20.08979734 -33.39453125 12.83203125 C-31.56772961 6.48333173 -27.89288417 2.21178201 -22.5078125 -1.45703125 C-15.05561564 -5.3415097 -7.08281484 -3.85534245 0 0 Z " fill="#64C6BC" transform="translate(1545.76171875,490.3671875)"/>
<path d="M0 0 C4.92050437 3.5583905 7.85899023 7.23513068 9.3203125 13.19140625 C10.29587578 19.81920211 9.26776057 25.47186786 5.6328125 31.12890625 C1.82945982 35.9080462 -2.55390442 38.26074529 -8.5546875 39.25390625 C-15.23993706 39.70868513 -20.81270474 37.67409442 -26.0546875 33.56640625 C-30.81588105 29.04824347 -32.33124543 24.34834562 -32.6171875 17.87890625 C-32.39992767 11.53491926 -30.96183702 6.92752199 -26.2734375 2.52734375 C-18.52006849 -3.57698782 -8.84526932 -5.1388508 0 0 Z " fill="#64C6BC" transform="translate(763.1796875,790.68359375)"/>
<path d="M0 0 C5.18075292 3.11723269 8.50360989 8.1062351 10.2578125 13.83203125 C11.32859192 20.33644668 9.80591303 26.06521564 6.26953125 31.578125 C2.96199123 35.79900717 -0.17925115 38.09708639 -5.4375 39.5625 C-11.63180033 40.30433237 -17.15654852 40.12540733 -22.6484375 36.97265625 C-26.77732027 33.71823119 -29.78165319 29.53004044 -31.4375 24.5625 C-32.14099715 17.42373383 -31.79791425 11.44772169 -27.4375 5.5625 C-20.16471032 -2.06031699 -9.8834684 -4.18661427 0 0 Z " fill="#E5B980" transform="translate(406.4375,863.4375)"/>
<path d="M0 0 C4.78896202 3.00702266 7.3329481 6.66008509 9 12 C10.02431108 19.10809809 9.3003688 25.15098648 5 31 C0.75326846 36.18147409 -3.70861615 38.00519599 -10.29296875 38.87890625 C-16.54609773 39.15862775 -21.54753586 37.41058945 -26.45703125 33.5234375 C-31.1653828 28.87468534 -32.27630514 24.00716724 -32.5625 17.5 C-32.31668824 9.92373027 -29.8894997 5.74502472 -24.5 0.625 C-16.62472305 -4.49393002 -8.17814269 -4.48996069 0 0 Z " fill="#64C6BC" transform="translate(695,803)"/>
<path d="M0 0 C4.21179757 3.57335767 6.47752582 7.86418924 7 13.3203125 C7.22709287 20.77070566 6.81671047 25.81687135 1.7265625 31.46484375 C-3.80796886 36.72264854 -9.03076112 37.95004963 -16.4921875 37.76953125 C-21.76737818 37.19163115 -25.45946487 35.43328129 -29.0625 31.5234375 C-34.11523494 25.02193259 -35.05689189 19.63515384 -34.2734375 11.46484375 C-32.53074621 5.31293353 -28.66119129 0.8184456 -23.2734375 -2.53515625 C-15.28446758 -6.07312864 -7.08694676 -4.87051122 0 0 Z " fill="#64C6BC" transform="translate(625.2734375,808.53515625)"/>
<path d="M0 0 C5.84206989 3.11490894 9.68243622 8.11272514 11.765625 14.31640625 C12.55352186 20.4455109 12.29032924 26.10200209 9.17578125 31.52734375 C5.92135619 35.65622652 1.73316544 38.66055944 -3.234375 40.31640625 C-10.37314117 41.0199034 -16.34915331 40.6768205 -22.234375 36.31640625 C-26.11957009 32.60961297 -28.99777918 28.69465512 -29.53515625 23.29296875 C-29.57568455 11.70187503 -29.57568455 11.70187503 -26.234375 7.31640625 C-18.71656197 -0.18574467 -10.74020708 -3.28590252 0 0 Z " fill="#72A6D9" transform="translate(1213.234375,624.68359375)"/>
<path d="M0 0 C5.25791632 3.16467039 9.12906588 7.36371307 11.5078125 13.05859375 C12.40969643 20.39950942 12.05453442 27.02894099 7.5078125 33.05859375 C3.70397542 37.13338909 -0.54262143 39.67942681 -6.10546875 40.39453125 C-13.22290499 40.49753322 -18.73343466 39.6447508 -24.0234375 34.59765625 C-29.21999004 28.64579084 -30.00164958 24.08793855 -29.87109375 16.32421875 C-29.14507148 10.06695467 -25.97718855 6.18941967 -21.3671875 2.12109375 C-15.44543168 -2.12712238 -6.80608949 -2.5709523 0 0 Z " fill="#1A4589" transform="translate(557.4921875,1023.94140625)"/>
<path d="M0 0 C4.20626034 1.50223584 5.73900021 4.28550034 8 8 C3.79373966 6.49776416 2.26099979 3.71449966 0 0 Z " fill="#1A4589" transform="translate(1939,892)"/>
</svg>
